<svg width="255" height="250" viewBox="0 0 255 250" fill="none" xmlns="http://www.w3.org/2000/svg">
<g filter="url(#filter0_g_4197_219)">
<path d="M69.6455 27.4645C101.21 -4.72516 153.052 -4.72516 184.616 27.4645C190.902 33.8753 198.217 39.1894 206.256 43.1869C246.624 63.259 262.644 112.564 241.784 152.531C237.63 160.49 234.836 169.088 233.518 177.97C226.903 222.565 184.962 253.037 140.505 245.548C131.651 244.056 122.61 244.056 113.757 245.548C69.3001 253.037 27.3587 222.565 20.7434 177.97C19.4259 169.088 16.6321 160.49 12.4777 152.531C-8.38269 112.564 7.63749 63.259 48.0056 43.1869C56.0451 39.1894 63.3593 33.8753 69.6455 27.4645Z" fill="#C7A8F6"/>
</g>
<path d="M97.9425 53.2298C92.0925 52.2536 78.0402 53.7694 68.6304 67.6424" stroke="black" stroke-width="5" stroke-linecap="round"/>
<path d="M153.632 53.2298C159.482 52.2536 173.534 53.7694 182.944 67.6424" stroke="black" stroke-width="5" stroke-linecap="round"/>
<ellipse cx="127.131" cy="172.342" rx="29.5" ry="16.5" transform="rotate(-90 127.131 172.342)" fill="#131313"/>
<circle cx="103.131" cy="94.3418" r="26.5" fill="white"/>
<circle cx="104.131" cy="85.3418" r="12.5" fill="#131313"/>
<circle cx="152.131" cy="94.3418" r="26.5" fill="white"/>
<circle cx="153.131" cy="85.3418" r="12.5" fill="#131313"/>
<ellipse cx="127.131" cy="127.342" rx="15.5" ry="8.5" fill="#131313"/>
<defs>
<filter id="filter0_g_4197_219" x="-0.000615358" y="-0.000615358" width="254.263" height="250.003" filterUnits="userSpaceOnUse" color-interpolation-filters="sRGB">
<feFlood flood-opacity="0" result="BackgroundImageFix"/>
<feBlend mode="normal" in="SourceGraphic" in2="BackgroundImageFix" result="shape"/>
<feTurbulence type="fractalNoise" baseFrequency="0.04012582078576088 0.04012582078576088" numOctaves="3" seed="8488" />
<feDisplacementMap in="shape" scale="6.6457619667053223" xChannelSelector="R" yChannelSelector="G" result="displacedImage" width="100%" height="100%" />
<feMerge result="effect1_texture_4197_219">
<feMergeNode in="displacedImage"/>
</feMerge>
</filter>
</defs>
</svg>
