<svg width="255" height="250" viewBox="0 0 255 250" fill="none" xmlns="http://www.w3.org/2000/svg">
<g filter="url(#filter0_g_4788_1857)">
<path d="M69.6475 27.4645C101.212 -4.72516 153.054 -4.72516 184.618 27.4645C190.904 33.8753 198.219 39.1894 206.258 43.1869C246.626 63.259 262.646 112.564 241.786 152.531C237.632 160.49 234.838 169.088 233.52 177.97C226.905 222.565 184.964 253.037 140.507 245.548C131.653 244.056 122.612 244.056 113.759 245.548C69.302 253.037 27.3607 222.565 20.7453 177.97C19.4279 169.088 16.6341 160.49 12.4796 152.531C-8.38074 112.564 7.63945 63.259 48.0075 43.1869C56.0471 39.1894 63.3613 33.8753 69.6475 27.4645Z" fill="#C7A8F6"/>
</g>
<path d="M102.365 62.5752C97.8932 61.5775 86.991 62.1587 79.1527 72.4654" stroke="black" stroke-width="5" stroke-linecap="round"/>
<path d="M156.115 64.7658C160.668 64.2626 171.442 66.0316 178.107 77.133" stroke="black" stroke-width="5" stroke-linecap="round"/>
<path d="M148.608 171.542C147.812 186.216 136.777 190.254 123.617 189.541C110.458 188.827 100.157 183.631 100.953 168.957C101.749 154.284 113.34 135.69 126.5 136.403C139.659 137.117 149.404 156.869 148.608 171.542Z" fill="#131313"/>
<circle cx="104.349" cy="98.6099" r="24.8937" transform="rotate(3.10505 104.349 98.6099)" fill="white"/>
<circle cx="111.414" cy="91.3485" r="11.3666" transform="rotate(3.10505 111.414 91.3485)" fill="#131313"/>
<circle cx="150.31" cy="101.104" r="24.8937" transform="rotate(3.10505 150.31 101.104)" fill="white"/>
<circle cx="156.816" cy="93.8114" r="11.3666" transform="rotate(3.10505 156.816 93.8114)" fill="#131313"/>
<path d="M140.729 121.798C140.453 126.877 134.159 128.468 126.523 128.054C118.888 127.64 112.802 125.377 113.078 120.298C113.353 115.22 119.885 109.25 127.521 109.664C135.157 110.078 141.004 116.72 140.729 121.798Z" fill="#131313"/>
<path d="M144.89 195.071C129.237 198.144 113.073 195.685 102.928 192.943C101.636 192.594 100.742 194.278 101.852 195.027C119.438 206.88 136.262 202.583 145.756 196.952C146.86 196.297 146.15 194.823 144.89 195.071Z" fill="#9575C4"/>
<defs>
<filter id="filter0_g_4788_1857" x="0.00133777" y="-0.000615358" width="254.263" height="250.003" filterUnits="userSpaceOnUse" color-interpolation-filters="sRGB">
<feFlood flood-opacity="0" result="BackgroundImageFix"/>
<feBlend mode="normal" in="SourceGraphic" in2="BackgroundImageFix" result="shape"/>
<feTurbulence type="fractalNoise" baseFrequency="0.04012582078576088 0.04012582078576088" numOctaves="3" seed="8488" />
<feDisplacementMap in="shape" scale="6.6457619667053223" xChannelSelector="R" yChannelSelector="G" result="displacedImage" width="100%" height="100%" />
<feMerge result="effect1_texture_4788_1857">
<feMergeNode in="displacedImage"/>
</feMerge>
</filter>
</defs>
</svg>
