<svg width="349" height="320" viewBox="0 0 349 320" fill="none" xmlns="http://www.w3.org/2000/svg">
<ellipse cx="169.214" cy="277.842" rx="93" ry="13.5" fill="url(#paint0_linear_5528_965)"/>
<g filter="url(#filter0_g_5528_965)">
<ellipse cx="124.162" cy="239.64" rx="24.3812" ry="29.1704" transform="rotate(30.4838 124.162 239.64)" fill="#F193BA"/>
</g>
<g filter="url(#filter1_g_5528_965)">
<ellipse cx="24.3812" cy="29.1704" rx="24.3812" ry="29.1704" transform="matrix(-0.955769 0.294119 0.294119 0.955769 233.152 215.645)" fill="#F193BA"/>
</g>
<g filter="url(#filter2_dg_5528_965)">
<path d="M279.966 174.62C273.496 229.787 223.529 269.263 168.362 262.792C113.196 256.322 73.7197 206.355 80.1901 151.189C86.6605 96.0221 136.627 56.5461 191.794 63.0165C246.96 69.4868 286.436 119.453 279.966 174.62Z" fill="#FDC8DE"/>
</g>
<path d="M256.03 96.98C273.915 117.597 283.397 145.378 279.968 174.621C273.497 229.788 223.53 269.264 168.363 262.794C137.825 259.212 112.097 242.301 96.307 218.558C115.937 233.363 144.933 248.479 173.328 247.587C207.182 246.524 217.577 235.157 231.681 222.212C245.785 209.267 257.578 185.982 263.614 155.981C267.479 136.77 265.577 115.598 256.03 96.98Z" fill="#FAB1D0"/>
<circle cx="163.03" cy="143.156" r="21.2364" transform="rotate(6.68956 163.03 143.156)" fill="white"/>
<ellipse cx="163.912" cy="143.28" rx="8" ry="8.5" transform="rotate(6.68956 163.912 143.28)" fill="#131313"/>
<circle cx="202.028" cy="147.73" r="21.2364" transform="rotate(6.68956 202.028 147.73)" fill="white"/>
<circle cx="201.157" cy="147.649" r="8.5" transform="rotate(6.68956 201.157 147.649)" fill="#131313"/>
<path d="M180.827 165.559C169.266 155.421 149.256 150.73 138.587 153.177L137.846 165.897L226.493 176.294L227.975 163.661C202.564 153.851 185.809 162.078 180.827 165.559Z" fill="#FDC8DE"/>
<path d="M216.483 176.128C212.839 190.964 195.535 200.856 176.167 198.584C156.799 196.312 142.254 182.686 142.142 167.408L216.483 176.128Z" fill="#131313"/>
<path d="M165.442 111.684C157.65 109.276 147.427 112.124 142.592 119.048" stroke="#1F2028" stroke-width="4" stroke-linecap="round"/>
<path d="M207.702 116.641C215.84 116.101 225.126 121.237 228.228 129.092" stroke="#1F2028" stroke-width="4" stroke-linecap="round"/>
<path d="M189.735 163.496C189.252 167.61 184.762 169.385 179.551 168.774C174.34 168.163 170.382 165.397 170.864 161.283C171.347 157.169 176.087 153.265 181.298 153.876C186.509 154.487 190.218 159.382 189.735 163.496Z" fill="#131313"/>
<rect x="73.0406" y="108.529" width="6.33039" height="66.4691" transform="rotate(-20.5182 73.0406 108.529)" fill="#7D889A"/>
<rect x="84.898" y="104.092" width="6.33039" height="66.4691" transform="rotate(-20.5182 84.898 104.092)" fill="#7D889A"/>
<rect x="78.9702" y="106.311" width="6.33039" height="66.4691" transform="rotate(-20.5182 78.9702 106.311)" fill="#677182"/>
<path d="M72.122 83.266C72.0667 81.7461 73.9781 81.0308 74.9342 82.2135L90.8273 101.873L73.0409 108.529L72.122 83.266Z" fill="#E9EBF8"/>
<path d="M72.0161 83.2075C71.9353 81.5932 73.9765 80.8292 74.9754 82.1L79.64 88.0343L72.3938 90.7462L72.0161 83.2075Z" fill="#7D889A"/>
<rect x="96.3374" y="170.781" width="18.9912" height="5.27533" transform="rotate(-20.5182 96.3374 170.781)" fill="#2C303C"/>
<path d="M98.187 175.723L115.973 169.066L117.453 173.019C118.474 175.747 117.09 178.787 114.361 179.808L106.456 182.767C103.727 183.788 100.687 182.404 99.6663 179.675L98.187 175.723Z" fill="#E9EBF8"/>
<g filter="url(#filter3_g_5528_965)">
<ellipse cx="270.649" cy="182.446" rx="18.8931" ry="19.7994" transform="rotate(-1.6748 270.649 182.446)" fill="#F193BA"/>
</g>
<path d="M67.6667 8.04337C68.0743 7.17202 69.3568 7.32244 69.5518 8.26446L74.7694 33.4796C74.8283 33.7644 75.0084 34.0094 75.2625 34.1508L96.2742 45.8386C97.0543 46.2725 96.9181 47.4335 96.0588 47.6752L72.9129 54.1838C72.6329 54.2625 72.4011 54.4593 72.2778 54.7227L61.3672 78.0462C60.9596 78.9175 59.6771 78.7671 59.4822 77.8251L54.2645 52.61C54.2056 52.3252 54.0256 52.0801 53.7714 51.9387L32.7598 40.2509C31.9797 39.817 32.1158 38.656 32.9752 38.4144L56.121 31.9058C56.401 31.827 56.6329 31.6303 56.7561 31.3668L67.6667 8.04337Z" fill="url(#paint1_linear_5528_965)" fill-opacity="0.1"/>
<path d="M316.082 102.131C316.469 101.2 317.833 101.36 317.993 102.355L320.788 119.671C320.833 119.953 320.998 120.202 321.239 120.355L333.992 128.457C334.699 128.906 334.574 129.973 333.782 130.246L319.501 135.177C319.23 135.27 319.013 135.474 318.903 135.738L312.178 151.938C311.791 152.868 310.427 152.708 310.267 151.714L307.472 134.398C307.427 134.115 307.263 133.866 307.021 133.713L294.268 125.612C293.561 125.163 293.686 124.096 294.478 123.822L308.76 118.892C309.03 118.799 309.247 118.594 309.357 118.33L316.082 102.131Z" fill="url(#paint2_linear_5528_965)" fill-opacity="0.1"/>
<path d="M196.649 205.382C181.305 207.792 165.743 204.179 156.456 200.798C155.41 200.417 154.541 201.753 155.392 202.47C171.528 216.068 188.142 212.285 197.33 207.014C198.257 206.483 197.704 205.216 196.649 205.382Z" fill="#F193BA"/>
<g filter="url(#filter4_g_5528_965)">
<ellipse cx="79.5593" cy="141.588" rx="18.8931" ry="22.7025" transform="rotate(12.4681 79.5593 141.588)" fill="#F193BA"/>
</g>
<defs>
<filter id="filter0_g_5528_965" x="93.4605" y="206.617" width="61.4023" height="66.0449" filterUnits="userSpaceOnUse" color-interpolation-filters="sRGB">
<feFlood flood-opacity="0" result="BackgroundImageFix"/>
<feBlend mode="normal" in="SourceGraphic" in2="BackgroundImageFix" result="shape"/>
<feTurbulence type="fractalNoise" baseFrequency="0.033333335071802139 0.033333335071802139" numOctaves="3" seed="8488" />
<feDisplacementMap in="shape" scale="10" xChannelSelector="R" yChannelSelector="G" result="displacedImage" width="100%" height="100%" />
<feMerge result="effect1_texture_5528_965">
<feMergeNode in="displacedImage"/>
</feMerge>
</filter>
<filter id="filter1_g_5528_965" x="188.589" y="216.9" width="59.6777" height="67.5898" filterUnits="userSpaceOnUse" color-interpolation-filters="sRGB">
<feFlood flood-opacity="0" result="BackgroundImageFix"/>
<feBlend mode="normal" in="SourceGraphic" in2="BackgroundImageFix" result="shape"/>
<feTurbulence type="fractalNoise" baseFrequency="0.033333335071802139 0.033333335071802139" numOctaves="3" seed="8488" />
<feDisplacementMap in="shape" scale="10" xChannelSelector="R" yChannelSelector="G" result="displacedImage" width="100%" height="100%" />
<feMerge result="effect1_texture_5528_965">
<feMergeNode in="displacedImage"/>
</feMerge>
</filter>
<filter id="filter2_dg_5528_965" x="49.4956" y="32.3223" width="261.164" height="261.164" filterUnits="userSpaceOnUse" color-interpolation-filters="sRGB">
<feFlood flood-opacity="0" result="BackgroundImageFix"/>
<feColorMatrix in="SourceAlpha" type="matrix" values="0 0 0 0 0 0 0 0 0 0 0 0 0 0 0 0 0 0 127 0" result="hardAlpha"/>
<feOffset/>
<feGaussianBlur stdDeviation="15"/>
<feComposite in2="hardAlpha" operator="out"/>
<feColorMatrix type="matrix" values="0 0 0 0 0 0 0 0 0 0 0 0 0 0 0 0 0 0 0.15 0"/>
<feBlend mode="normal" in2="BackgroundImageFix" result="effect1_dropShadow_5528_965"/>
<feBlend mode="normal" in="SourceGraphic" in2="effect1_dropShadow_5528_965" result="shape"/>
<feTurbulence type="fractalNoise" baseFrequency="0.014285714365541935 0.014285714365541935" numOctaves="3" seed="8488" />
<feDisplacementMap in="shape" scale="14" xChannelSelector="R" yChannelSelector="G" result="displacedImage" width="100%" height="100%" />
<feMerge result="effect2_texture_5528_965">
<feMergeNode in="displacedImage"/>
</feMerge>
</filter>
<filter id="filter3_g_5528_965" x="246.755" y="157.646" width="47.7871" height="49.5977" filterUnits="userSpaceOnUse" color-interpolation-filters="sRGB">
<feFlood flood-opacity="0" result="BackgroundImageFix"/>
<feBlend mode="normal" in="SourceGraphic" in2="BackgroundImageFix" result="shape"/>
<feTurbulence type="fractalNoise" baseFrequency="0.033333335071802139 0.033333335071802139" numOctaves="3" seed="8488" />
<feDisplacementMap in="shape" scale="10" xChannelSelector="R" yChannelSelector="G" result="displacedImage" width="100%" height="100%" />
<feMerge result="effect1_texture_5528_965">
<feMergeNode in="displacedImage"/>
</feMerge>
</filter>
<filter id="filter4_g_5528_965" x="55.4663" y="114.045" width="48.1855" height="55.0859" filterUnits="userSpaceOnUse" color-interpolation-filters="sRGB">
<feFlood flood-opacity="0" result="BackgroundImageFix"/>
<feBlend mode="normal" in="SourceGraphic" in2="BackgroundImageFix" result="shape"/>
<feTurbulence type="fractalNoise" baseFrequency="0.033333335071802139 0.033333335071802139" numOctaves="3" seed="8488" />
<feDisplacementMap in="shape" scale="10" xChannelSelector="R" yChannelSelector="G" result="displacedImage" width="100%" height="100%" />
<feMerge result="effect1_texture_5528_965">
<feMergeNode in="displacedImage"/>
</feMerge>
</filter>
<linearGradient id="paint0_linear_5528_965" x1="76.2144" y1="277.842" x2="262.214" y2="277.842" gradientUnits="userSpaceOnUse">
<stop stop-color="#313743" stop-opacity="0.5"/>
<stop offset="1" stop-color="#313743"/>
</linearGradient>
<linearGradient id="paint1_linear_5528_965" x1="68.9419" y1="5.31723" x2="60.0919" y2="80.7721" gradientUnits="userSpaceOnUse">
<stop stop-color="#515760"/>
<stop offset="1" stop-color="#A8B4C6"/>
</linearGradient>
<linearGradient id="paint2_linear_5528_965" x1="317.433" y1="98.8787" x2="310.828" y2="155.189" gradientUnits="userSpaceOnUse">
<stop stop-color="#515760"/>
<stop offset="1" stop-color="#A8B4C6"/>
</linearGradient>
</defs>
</svg>
