<svg width="312" height="306" viewBox="0 0 312 306" fill="none" xmlns="http://www.w3.org/2000/svg">
<path d="M34.5747 17.9536C43.9927 1.07315 65.3117 -4.9764 82.1922 4.44156L136.202 34.5747C153.082 43.9927 159.132 65.3117 149.714 82.1922L119.581 136.202C110.163 153.082 88.8437 159.132 71.9632 149.714L17.9536 119.581C1.07315 110.163 -4.9764 88.8437 4.44156 71.9632L34.5747 17.9536Z" fill="url(#paint0_linear_5528_1042)" fill-opacity="0.1"/>
<path d="M300.002 108.867C295.936 101.648 286.79 99.0922 279.571 103.157L262.865 112.566C255.647 116.631 253.09 125.778 257.155 132.996L266.564 149.702C270.629 156.921 279.776 159.477 286.994 155.412L303.7 146.004C310.919 141.938 313.475 132.791 309.41 125.573L300.002 108.867Z" fill="url(#paint1_linear_5528_1042)" fill-opacity="0.1"/>
<ellipse cx="147.297" cy="293.297" rx="92.5" ry="12.5" fill="url(#paint2_linear_5528_1042)"/>
<g filter="url(#filter0_g_5528_1042)">
<ellipse cx="25.5892" cy="30.6157" rx="25.5892" ry="30.6157" transform="matrix(-0.997787 0.0664898 0.0664898 0.997787 206.863 229.797)" fill="#138A56"/>
</g>
<g filter="url(#filter1_g_5528_1042)">
<ellipse cx="108.448" cy="259.295" rx="25.5892" ry="30.6157" transform="rotate(2.01827 108.448 259.295)" fill="#138A56"/>
</g>
<g filter="url(#filter2_g_5528_1042)">
<path d="M54.7969 162.797C54.7969 121.713 54.7969 101.171 66.6973 87.7379C67.9616 86.3109 69.3109 84.9616 70.7379 83.6973C84.1708 71.7969 104.713 71.7969 145.797 71.7969C186.881 71.7969 207.423 71.7969 220.856 83.6973C222.283 84.9616 223.632 86.3109 224.896 87.7379C236.797 101.171 236.797 121.713 236.797 162.797C236.797 203.881 236.797 224.423 224.896 237.856C223.632 239.283 222.283 240.632 220.856 241.896C207.423 253.797 186.881 253.797 145.797 253.797C104.713 253.797 84.1708 253.797 70.7379 241.896C69.3109 240.632 67.9616 239.283 66.6973 237.856C54.7969 224.423 54.7969 203.881 54.7969 162.797Z" fill="#2CB67A"/>
</g>
<path fill-rule="evenodd" clip-rule="evenodd" d="M232.175 100.465C236.795 113.787 236.797 132.825 236.797 162.796C236.797 203.88 236.797 224.422 224.896 237.854C223.632 239.282 222.282 240.631 220.855 241.896C207.423 253.796 186.881 253.796 145.797 253.796C104.713 253.796 84.1711 253.796 70.7383 241.896C69.3113 240.631 67.9615 239.282 66.6973 237.854C62.8745 233.539 60.2808 228.49 58.5195 222.263C100.19 253.166 181.949 236.702 194.797 228.796C229.203 207.623 234.68 149.74 232.175 100.465Z" fill="#22A26A"/>
<path d="M157.79 179.565C146.633 182.199 134.923 181.106 127.461 179.588C126.501 179.393 125.938 180.662 126.791 181.144C139.855 188.536 151.768 185.079 158.455 180.901C159.251 180.403 158.705 179.35 157.79 179.565Z" fill="#208D5E"/>
<path d="M145.606 126.369C145.606 138.063 136.126 147.544 124.432 147.544C112.738 147.544 103.258 138.063 103.258 126.369H145.606Z" fill="white"/>
<path d="M130.052 126.371C130.173 127.019 130.239 127.686 130.239 128.369C130.239 134.336 125.402 139.173 119.436 139.173C113.469 139.173 108.633 134.335 108.633 128.369C108.633 127.686 108.699 127.019 108.82 126.371H130.052Z" fill="black"/>
<path d="M182.606 126.369C182.606 138.063 173.126 147.544 161.432 147.544C149.737 147.544 140.258 138.063 140.258 126.369H182.606Z" fill="white"/>
<path d="M167.056 126.371C167.177 127.019 167.243 127.686 167.243 128.369C167.243 134.336 162.406 139.173 156.439 139.173C150.473 139.173 145.637 134.335 145.637 128.369C145.637 127.686 145.703 127.019 145.824 126.371H167.056Z" fill="black"/>
<path d="M154.216 155.153C154.216 158.57 149.164 159.856 142.932 159.856C136.7 159.856 131.648 158.57 131.648 155.153C131.648 151.735 136.7 147.48 142.932 147.48C149.164 147.48 154.216 151.735 154.216 155.153Z" fill="#131313"/>
<path d="M117.09 169.592C126.675 171.705 150.578 174.664 169.506 169.592" stroke="black" stroke-width="4" stroke-linecap="round"/>
<path d="M100.622 108.985C100.164 108.719 99.6182 108.645 99.1054 108.781C98.5926 108.917 98.1548 109.251 97.8882 109.709C97.6216 110.168 97.548 110.713 97.6838 111.226C97.8195 111.739 98.1534 112.177 98.6119 112.443C98.6119 112.443 98.6119 112.443 98.6119 112.443C100.163 113.345 101.764 114.163 103.397 114.902C118.219 121.293 140.459 124.909 151.226 108.062C152.066 106.59 152.835 105.22 153.657 104.05C153.763 103.905 153.829 103.818 153.918 103.713C153.962 103.662 153.992 103.631 154 103.624C154.001 103.619 154.022 103.618 153.879 103.708C153.713 103.771 153.553 103.999 152.71 103.882C152.35 103.811 152.023 103.593 151.876 103.445C151.746 103.319 151.674 103.212 151.629 103.138C151.541 102.983 151.554 102.978 151.554 102.987C151.558 103 151.571 103.046 151.586 103.116C151.698 103.67 151.779 104.533 151.893 105.376C152.308 108.704 153.289 112.545 156.023 115.389C163.529 122.333 173.272 119.476 180.763 117.539C182.55 117.012 184.055 116.512 185.836 115.872C186.335 115.693 186.742 115.322 186.967 114.842C187.193 114.362 187.219 113.812 187.039 113.313C186.859 112.814 186.488 112.407 186.008 112.181C185.528 111.955 184.978 111.93 184.479 112.11C184.479 112.11 184.479 112.11 184.479 112.11C182.767 112.725 181.329 113.202 179.636 113.702C172.517 115.749 163.594 117.381 158.916 112.627C157.08 110.729 156.234 107.91 155.858 104.854C155.745 104.041 155.702 103.334 155.497 102.281C155.464 102.123 155.425 101.964 155.372 101.795C155.345 101.708 155.319 101.631 155.276 101.524C155.222 101.388 155.155 101.242 155.058 101.079C154.961 100.918 154.833 100.738 154.642 100.555C154.423 100.336 153.999 100.059 153.541 99.9691C152.465 99.8164 152.183 100.108 151.823 100.278C150.832 100.969 150.74 101.315 150.416 101.706C149.33 103.259 148.622 104.563 147.745 106.092C139.58 119.718 118.96 117.465 105.046 111.257C103.529 110.571 102.047 109.814 100.622 108.985Z" fill="black"/>
<rect x="68.0703" y="130.844" width="6.64403" height="69.7623" transform="rotate(23.0315 68.0703 130.844)" fill="#7D889A"/>
<rect x="80.2969" y="136.041" width="6.64403" height="69.7623" transform="rotate(23.0315 80.2969 136.041)" fill="#7D889A"/>
<rect x="74.1836" y="133.443" width="6.64403" height="69.7623" transform="rotate(23.0315 74.1836 133.443)" fill="#677182"/>
<path d="M85.6376 110.965C86.6946 109.769 88.6659 110.607 88.5379 112.198L86.4116 138.645L68.0683 130.847L85.6376 110.965Z" fill="#E9EBF8"/>
<path d="M85.6013 110.845C86.7072 109.559 88.8124 110.454 88.6533 112.143L87.9103 120.03L80.4373 116.853L85.6013 110.845Z" fill="#7D889A"/>
<rect x="40.7773" y="195.049" width="19.9321" height="5.53669" transform="rotate(23.0315 40.7773 195.049)" fill="#2C303C"/>
<path d="M38.6094 200.146L56.9527 207.945L55.2197 212.021C54.0234 214.835 50.7723 216.146 47.9582 214.95L39.8056 211.484C36.9916 210.288 35.6801 207.037 36.8764 204.223L38.6094 200.146Z" fill="#E9EBF8"/>
<g filter="url(#filter3_g_5528_1042)">
<ellipse cx="228.249" cy="167.729" rx="19.8291" ry="20.7804" transform="rotate(-6.61943 228.249 167.729)" fill="#138A56"/>
</g>
<g filter="url(#filter4_g_5528_1042)">
<ellipse cx="58.1057" cy="166.691" rx="19.8291" ry="23.8273" transform="rotate(26.1745 58.1057 166.691)" fill="#138A56"/>
</g>
<defs>
<filter id="filter0_g_5528_1042" x="152.502" y="226.201" width="61.7259" height="71.6888" filterUnits="userSpaceOnUse" color-interpolation-filters="sRGB">
<feFlood flood-opacity="0" result="BackgroundImageFix"/>
<feBlend mode="normal" in="SourceGraphic" in2="BackgroundImageFix" result="shape"/>
<feTurbulence type="fractalNoise" baseFrequency="0.031759791076183319 0.031759791076183319" numOctaves="3" seed="8488" />
<feDisplacementMap in="shape" scale="10.495451927185059" xChannelSelector="R" yChannelSelector="G" result="displacedImage" width="100%" height="100%" />
<feMerge result="effect1_texture_5528_1042">
<feMergeNode in="displacedImage"/>
</feMerge>
</filter>
<filter id="filter1_g_5528_1042" x="77.6038" y="223.436" width="61.6869" height="71.7162" filterUnits="userSpaceOnUse" color-interpolation-filters="sRGB">
<feFlood flood-opacity="0" result="BackgroundImageFix"/>
<feBlend mode="normal" in="SourceGraphic" in2="BackgroundImageFix" result="shape"/>
<feTurbulence type="fractalNoise" baseFrequency="0.031759791076183319 0.031759791076183319" numOctaves="3" seed="8488" />
<feDisplacementMap in="shape" scale="10.495451927185059" xChannelSelector="R" yChannelSelector="G" result="displacedImage" width="100%" height="100%" />
<feMerge result="effect1_texture_5528_1042">
<feMergeNode in="displacedImage"/>
</feMerge>
</filter>
<filter id="filter2_g_5528_1042" x="52.3778" y="69.3778" width="186.838" height="186.838" filterUnits="userSpaceOnUse" color-interpolation-filters="sRGB">
<feFlood flood-opacity="0" result="BackgroundImageFix"/>
<feBlend mode="normal" in="SourceGraphic" in2="BackgroundImageFix" result="shape"/>
<feTurbulence type="fractalNoise" baseFrequency="0.055117886513471603 0.055117886513471603" numOctaves="3" seed="8488" />
<feDisplacementMap in="shape" scale="4.8381147384643555" xChannelSelector="R" yChannelSelector="G" result="displacedImage" width="100%" height="100%" />
<feMerge result="effect1_texture_5528_1042">
<feMergeNode in="displacedImage"/>
</feMerge>
</filter>
<filter id="filter3_g_5528_1042" x="203.159" y="141.711" width="50.183" height="52.0345" filterUnits="userSpaceOnUse" color-interpolation-filters="sRGB">
<feFlood flood-opacity="0" result="BackgroundImageFix"/>
<feBlend mode="normal" in="SourceGraphic" in2="BackgroundImageFix" result="shape"/>
<feTurbulence type="fractalNoise" baseFrequency="0.031759791076183319 0.031759791076183319" numOctaves="3" seed="8488" />
<feDisplacementMap in="shape" scale="10.495451927185059" xChannelSelector="R" yChannelSelector="G" result="displacedImage" width="100%" height="100%" />
<feMerge result="effect1_texture_5528_1042">
<feMergeNode in="displacedImage"/>
</feMerge>
</filter>
<filter id="filter4_g_5528_1042" x="32.1859" y="138.334" width="51.8392" height="56.7142" filterUnits="userSpaceOnUse" color-interpolation-filters="sRGB">
<feFlood flood-opacity="0" result="BackgroundImageFix"/>
<feBlend mode="normal" in="SourceGraphic" in2="BackgroundImageFix" result="shape"/>
<feTurbulence type="fractalNoise" baseFrequency="0.031759791076183319 0.031759791076183319" numOctaves="3" seed="8488" />
<feDisplacementMap in="shape" scale="10.495451927185059" xChannelSelector="R" yChannelSelector="G" result="displacedImage" width="100%" height="100%" />
<feMerge result="effect1_texture_5528_1042">
<feMergeNode in="displacedImage"/>
</feMerge>
</filter>
<linearGradient id="paint0_linear_5528_1042" x1="51.6264" y1="-12.6104" x2="102.527" y2="166.767" gradientUnits="userSpaceOnUse">
<stop stop-color="#515760"/>
<stop offset="1" stop-color="#A8B4C6"/>
</linearGradient>
<linearGradient id="paint1_linear_5528_1042" x1="292.641" y1="95.7957" x2="273.924" y2="162.771" gradientUnits="userSpaceOnUse">
<stop stop-color="#515760"/>
<stop offset="1" stop-color="#A8B4C6"/>
</linearGradient>
<linearGradient id="paint2_linear_5528_1042" x1="54.7969" y1="293.297" x2="239.797" y2="293.297" gradientUnits="userSpaceOnUse">
<stop stop-color="#313743" stop-opacity="0.5"/>
<stop offset="1" stop-color="#313743"/>
</linearGradient>
</defs>
</svg>
