<svg width="237" height="272" viewBox="0 0 237 272" fill="none" xmlns="http://www.w3.org/2000/svg">
<ellipse cx="110.879" cy="259.82" rx="108.5" ry="11.5" fill="url(#paint0_linear_5528_1280)"/>
<g filter="url(#filter0_g_5528_1280)">
<ellipse cx="67.3158" cy="231.28" rx="23.7545" ry="32.5369" transform="rotate(40.0725 67.3158 231.28)" fill="#AA361D"/>
</g>
<g filter="url(#filter1_g_5528_1280)">
<ellipse cx="23.7545" cy="32.5369" rx="23.7545" ry="32.5369" transform="matrix(-0.76523 0.643756 0.643756 0.76523 150.566 191.09)" fill="#AA361D"/>
</g>
<g filter="url(#filter2_g_5528_1280)">
<path d="M73.6989 120.715C88.9837 108.239 96.6261 102.001 105.354 100.68C108.518 100.201 111.732 100.201 114.896 100.68C123.624 102.001 131.267 108.239 146.551 120.715C194.881 160.162 219.046 179.885 217.932 197.916C217.551 204.1 215.565 210.061 212.185 215.168C202.331 230.059 171.596 230.059 110.125 230.059C48.6545 230.059 17.9191 230.059 8.06514 215.168C4.68572 210.061 2.69985 204.1 2.31804 197.916C1.20472 179.885 25.3695 160.162 73.6989 120.715Z" fill="#EA674B"/>
</g>
<path d="M157.124 129.355C198.397 163.144 218.959 181.253 217.931 197.917C217.549 204.101 215.563 210.062 212.184 215.169C202.33 230.059 171.594 230.06 110.124 230.06C51.7843 230.06 21.1295 230.058 9.73438 217.329C60.2169 230.246 155.864 226.552 182.41 202.493C202.458 184.323 183.873 159.575 157.124 129.355Z" fill="#CA492E"/>
<path d="M123.707 200.063C114.294 201.695 104.575 201.006 97.9111 199.944C96.902 199.783 96.4217 201.105 97.3599 201.511C108.243 206.211 118.163 204.213 124.234 201.402C125.124 200.99 124.674 199.896 123.707 200.063Z" fill="#CA492E"/>
<path d="M120.369 176.293C120.369 179.517 115.779 180.982 110.118 180.982C104.457 180.982 99.8672 179.517 99.8672 176.293C99.8672 173.069 104.457 169.307 110.118 169.307C115.779 169.307 120.369 173.069 120.369 176.293Z" fill="#131313"/>
<ellipse cx="17.6322" cy="15.5152" rx="17.6322" ry="15.5152" transform="matrix(0.913416 -0.407027 0.381885 0.92421 66.4453 152.098)" fill="white"/>
<ellipse cx="7.56443" cy="7.08121" rx="7.56443" ry="7.08121" transform="matrix(0.913416 -0.407027 0.381885 0.92421 71.1426 156.281)" fill="#131313"/>
<ellipse cx="17.6322" cy="15.5152" rx="17.6322" ry="15.5152" transform="matrix(-0.913416 -0.407027 -0.381885 0.92421 154.146 152.096)" fill="white"/>
<ellipse cx="7.56443" cy="7.08121" rx="7.56443" ry="7.08121" transform="matrix(-0.913416 -0.407027 -0.381885 0.92421 133.318 156.281)" fill="#131313"/>
<path d="M86.2695 190.482C86.2695 190.482 93.5874 191.826 98.5044 191.853C103.673 191.881 106.389 192.254 111.557 192.282C116.474 192.309 118.72 191.916 123.636 191.853C128.051 191.797 134.548 190.482 134.548 190.482" stroke="black" stroke-width="4.14532" stroke-linecap="round"/>
<rect width="6.88541" height="72.2968" transform="matrix(0.85948 0.511169 0.511169 -0.85948 169.523 195.955)" fill="#7D889A"/>
<rect width="6.88541" height="72.2968" transform="matrix(0.85948 0.511169 0.511169 -0.85948 181.355 202.992)" fill="#7D889A"/>
<rect width="6.88541" height="72.2968" transform="matrix(0.85948 0.511169 0.511169 -0.85948 175.441 199.473)" fill="#677182"/>
<path d="M163.663 222.816C163.31 224.432 165.218 225.567 166.47 224.486L187.277 206.51L169.524 195.952L163.663 222.816Z" fill="#E9EBF8"/>
<path d="M163.541 222.857C163.143 224.57 165.18 225.781 166.495 224.614L172.633 219.162L165.4 214.861L163.541 222.857Z" fill="#7D889A"/>
<rect width="20.6562" height="5.73784" transform="matrix(0.85948 0.511169 0.511169 -0.85948 206.479 133.816)" fill="#2C303C"/>
<path d="M209.414 128.883L227.168 139.442L229.514 135.496C231.134 132.773 230.239 129.252 227.516 127.632L219.625 122.939C216.901 121.319 213.38 122.214 211.76 124.938L209.414 128.883Z" fill="#E9EBF8"/>
<g filter="url(#filter3_g_5528_1280)">
<ellipse cx="20.5495" cy="21.5353" rx="20.5495" ry="21.5353" transform="matrix(-0.953816 -0.300391 -0.300391 0.953816 54.4219 145.828)" fill="#AA361D"/>
</g>
<g filter="url(#filter4_g_5528_1280)">
<ellipse cx="20.5495" cy="24.693" rx="20.5495" ry="24.693" transform="matrix(-0.855135 0.518406 0.518406 0.855135 210.486 145.492)" fill="#AA361D"/>
</g>
<g filter="url(#filter5_g_5528_1280)">
<path d="M190.127 68.5968C189.425 65.1801 186.994 62.3759 183.711 61.1971L180.966 60.2113L177.853 59.2899C174.673 58.3484 171.233 59.045 168.669 61.1496L165.978 63.3593L163.409 65.7106C160.962 67.95 159.785 71.2568 160.266 74.5385L160.738 77.7501L161.324 80.6074C162.026 84.0241 164.458 86.8282 167.74 88.0071L170.486 88.9929L173.598 89.9143C176.778 90.8558 180.219 90.1592 182.782 88.0546L185.474 85.8448L188.043 83.4936C190.489 81.2542 191.666 77.9474 191.185 74.6657L190.714 71.4541L190.127 68.5968Z" fill="url(#paint1_linear_5528_1280)" fill-opacity="0.1"/>
</g>
<g filter="url(#filter6_g_5528_1280)">
<path d="M177.74 102.454C177.134 99.7265 175.194 97.4888 172.581 96.5025C169.916 95.6638 167.008 96.2252 164.847 97.9956C162.788 99.8839 161.82 102.683 162.273 105.44C162.879 108.167 164.819 110.404 167.433 111.391C170.098 112.23 173.006 111.668 175.167 109.898C177.225 108.009 178.193 105.21 177.74 102.454Z" fill="url(#paint2_linear_5528_1280)" fill-opacity="0.1"/>
</g>
<g filter="url(#filter7_g_5528_1280)">
<path d="M209.82 44.4479C209.533 64.6042 169.806 75.761 130.873 75.2051C91.9414 74.6493 68.5471 62.5913 68.8349 42.4349C69.1226 22.2786 92.9835 1.65672 131.916 2.21258C170.848 2.76845 210.108 24.2915 209.82 44.4479Z" fill="url(#paint3_linear_5528_1280)" fill-opacity="0.1"/>
</g>
<defs>
<filter id="filter0_g_5528_1280" x="34.1437" y="196.618" width="66.3455" height="69.324" filterUnits="userSpaceOnUse" color-interpolation-filters="sRGB">
<feFlood flood-opacity="0" result="BackgroundImageFix"/>
<feBlend mode="normal" in="SourceGraphic" in2="BackgroundImageFix" result="shape"/>
<feTurbulence type="fractalNoise" baseFrequency="0.030646393075585365 0.030646393075585365" numOctaves="3" seed="8488" />
<feDisplacementMap in="shape" scale="10.87675666809082" xChannelSelector="R" yChannelSelector="G" result="displacedImage" width="100%" height="100%" />
<feMerge result="effect1_texture_5528_1280">
<feMergeNode in="displacedImage"/>
</feMerge>
</filter>
<filter id="filter1_g_5528_1280" x="120.161" y="196.618" width="66.3455" height="69.324" filterUnits="userSpaceOnUse" color-interpolation-filters="sRGB">
<feFlood flood-opacity="0" result="BackgroundImageFix"/>
<feBlend mode="normal" in="SourceGraphic" in2="BackgroundImageFix" result="shape"/>
<feTurbulence type="fractalNoise" baseFrequency="0.030646393075585365 0.030646393075585365" numOctaves="3" seed="8488" />
<feDisplacementMap in="shape" scale="10.87675666809082" xChannelSelector="R" yChannelSelector="G" result="displacedImage" width="100%" height="100%" />
<feMerge result="effect1_texture_5528_1280">
<feMergeNode in="displacedImage"/>
</feMerge>
</filter>
<filter id="filter2_g_5528_1280" x="-0.000879765" y="98.0382" width="220.252" height="134.303" filterUnits="userSpaceOnUse" color-interpolation-filters="sRGB">
<feFlood flood-opacity="0" result="BackgroundImageFix"/>
<feBlend mode="normal" in="SourceGraphic" in2="BackgroundImageFix" result="shape"/>
<feTurbulence type="fractalNoise" baseFrequency="0.058424953371286392 0.058424953371286392" numOctaves="3" seed="8488" />
<feDisplacementMap in="shape" scale="4.5642595291137695" xChannelSelector="R" yChannelSelector="G" result="displacedImage" width="100%" height="100%" />
<feMerge result="effect1_texture_5528_1280">
<feMergeNode in="displacedImage"/>
</feMerge>
</filter>
<filter id="filter3_g_5528_1280" x="2.26865" y="133.304" width="52.1678" height="53.785" filterUnits="userSpaceOnUse" color-interpolation-filters="sRGB">
<feFlood flood-opacity="0" result="BackgroundImageFix"/>
<feBlend mode="normal" in="SourceGraphic" in2="BackgroundImageFix" result="shape"/>
<feTurbulence type="fractalNoise" baseFrequency="0.030646393075585365 0.030646393075585365" numOctaves="3" seed="8488" />
<feDisplacementMap in="shape" scale="10.87675666809082" xChannelSelector="R" yChannelSelector="G" result="displacedImage" width="100%" height="100%" />
<feMerge result="effect1_texture_5528_1280">
<feMergeNode in="displacedImage"/>
</feMerge>
</filter>
<filter id="filter4_g_5528_1280" x="178.534" y="148.167" width="54.3611" height="58.1893" filterUnits="userSpaceOnUse" color-interpolation-filters="sRGB">
<feFlood flood-opacity="0" result="BackgroundImageFix"/>
<feBlend mode="normal" in="SourceGraphic" in2="BackgroundImageFix" result="shape"/>
<feTurbulence type="fractalNoise" baseFrequency="0.030646393075585365 0.030646393075585365" numOctaves="3" seed="8488" />
<feDisplacementMap in="shape" scale="10.87675666809082" xChannelSelector="R" yChannelSelector="G" result="displacedImage" width="100%" height="100%" />
<feMerge result="effect1_texture_5528_1280">
<feMergeNode in="displacedImage"/>
</feMerge>
</filter>
<filter id="filter5_g_5528_1280" x="157.958" y="56.6768" width="35.5351" height="35.8515" filterUnits="userSpaceOnUse" color-interpolation-filters="sRGB">
<feFlood flood-opacity="0" result="BackgroundImageFix"/>
<feBlend mode="normal" in="SourceGraphic" in2="BackgroundImageFix" result="shape"/>
<feTurbulence type="fractalNoise" baseFrequency="0.060547556728124619 0.060547556728124619" numOctaves="3" seed="8488" />
<feDisplacementMap in="shape" scale="4.4042510986328125" xChannelSelector="R" yChannelSelector="G" result="displacedImage" width="100%" height="100%" />
<feMerge result="effect1_texture_5528_1280">
<feMergeNode in="displacedImage"/>
</feMerge>
</filter>
<filter id="filter6_g_5528_1280" x="159.962" y="93.919" width="20.0898" height="20.0566" filterUnits="userSpaceOnUse" color-interpolation-filters="sRGB">
<feFlood flood-opacity="0" result="BackgroundImageFix"/>
<feBlend mode="normal" in="SourceGraphic" in2="BackgroundImageFix" result="shape"/>
<feTurbulence type="fractalNoise" baseFrequency="0.060547556728124619 0.060547556728124619" numOctaves="3" seed="8488" />
<feDisplacementMap in="shape" scale="4.4042510986328125" xChannelSelector="R" yChannelSelector="G" result="displacedImage" width="100%" height="100%" />
<feMerge result="effect1_texture_5528_1280">
<feMergeNode in="displacedImage"/>
</feMerge>
</filter>
<filter id="filter7_g_5528_1280" x="66.6299" y="-0.000953674" width="145.394" height="77.4277" filterUnits="userSpaceOnUse" color-interpolation-filters="sRGB">
<feFlood flood-opacity="0" result="BackgroundImageFix"/>
<feBlend mode="normal" in="SourceGraphic" in2="BackgroundImageFix" result="shape"/>
<feTurbulence type="fractalNoise" baseFrequency="0.060547556728124619 0.060547556728124619" numOctaves="3" seed="8488" />
<feDisplacementMap in="shape" scale="4.4042510986328125" xChannelSelector="R" yChannelSelector="G" result="displacedImage" width="100%" height="100%" />
<feMerge result="effect1_texture_5528_1280">
<feMergeNode in="displacedImage"/>
</feMerge>
</filter>
<linearGradient id="paint0_linear_5528_1280" x1="2.37891" y1="259.82" x2="219.379" y2="259.82" gradientUnits="userSpaceOnUse">
<stop stop-color="#313743" stop-opacity="0.5"/>
<stop offset="1" stop-color="#313743"/>
</linearGradient>
<linearGradient id="paint1_linear_5528_1280" x1="188.997" y1="63.0952" x2="162.454" y2="86.1089" gradientUnits="userSpaceOnUse">
<stop stop-color="#A8B4C6"/>
<stop offset="1" stop-color="#515760"/>
</linearGradient>
<linearGradient id="paint2_linear_5528_1280" x1="176.769" y1="98.0831" x2="163.244" y2="109.81" gradientUnits="userSpaceOnUse">
<stop stop-color="#A8B4C6"/>
<stop offset="1" stop-color="#515760"/>
</linearGradient>
<linearGradient id="paint3_linear_5528_1280" x1="131.916" y1="2.21258" x2="130.873" y2="75.2051" gradientUnits="userSpaceOnUse">
<stop stop-color="#A8B4C6"/>
<stop offset="1" stop-color="#515760"/>
</linearGradient>
</defs>
</svg>
