<svg width="333" height="196" viewBox="0 0 333 196" fill="none" xmlns="http://www.w3.org/2000/svg">
<g filter="url(#filter0_g_4788_1847)">
<path d="M111.312 33.0173C134.424 14.8523 145.98 5.76975 159.177 3.84544C163.961 3.14787 168.821 3.14787 173.606 3.84544C186.803 5.76975 198.359 14.8523 221.47 33.0173C294.548 90.4541 331.086 119.173 329.403 145.426C328.826 154.43 325.823 163.11 320.713 170.545C305.813 192.227 259.339 192.227 166.391 192.227C73.4436 192.227 26.9697 192.227 12.0698 170.545C6.95994 163.11 3.95717 154.43 3.37984 145.426C1.69643 119.173 38.2351 90.4541 111.312 33.0173Z" fill="#EA674B"/>
</g>
<path d="M187.018 148.66C172.718 151.061 157.942 150.043 147.843 148.487C146.366 148.26 145.687 150.196 147.066 150.77C163.551 157.636 178.576 154.712 187.759 150.611C189.069 150.025 188.433 148.422 187.018 148.66Z" fill="#C04B32"/>
<path d="M181.891 113.939C181.891 118.634 174.951 120.768 166.391 120.768C157.83 120.768 150.891 118.634 150.891 113.939C150.891 109.245 157.83 103.768 166.391 103.768C174.951 103.768 181.891 109.245 181.891 113.939Z" fill="#131313"/>
<ellipse cx="133.663" cy="89.1398" rx="26.5" ry="22.7196" transform="rotate(-23.2242 133.663 89.1398)" fill="white"/>
<ellipse cx="134.181" cy="93.7804" rx="11.3688" ry="10.3693" transform="rotate(-23.2242 134.181 93.7804)" fill="#131313"/>
<ellipse cx="26.5" cy="22.7196" rx="26.5" ry="22.7196" transform="matrix(-0.918969 -0.394329 -0.394329 0.918969 232.949 78.709)" fill="white"/>
<ellipse cx="11.3688" cy="10.3693" rx="11.3688" ry="10.3693" transform="matrix(-0.918969 -0.394329 -0.394329 0.918969 213.656 88.7324)" fill="#131313"/>
<path d="M130.324 140.767C130.324 140.767 141.389 138.809 148.824 138.771C156.639 138.73 160.509 140.808 168.324 140.767C175.759 140.728 179.392 138.679 186.824 138.771C193.501 138.852 203.324 140.767 203.324 140.767" stroke="black" stroke-width="5" stroke-linecap="round"/>
<defs>
<filter id="filter0_g_4788_1847" x="0.00133777" y="-0.000615358" width="332.779" height="195.55" filterUnits="userSpaceOnUse" color-interpolation-filters="sRGB">
<feFlood flood-opacity="0" result="BackgroundImageFix"/>
<feBlend mode="normal" in="SourceGraphic" in2="BackgroundImageFix" result="shape"/>
<feTurbulence type="fractalNoise" baseFrequency="0.04012582078576088 0.04012582078576088" numOctaves="3" seed="8488" />
<feDisplacementMap in="shape" scale="6.6457619667053223" xChannelSelector="R" yChannelSelector="G" result="displacedImage" width="100%" height="100%" />
<feMerge result="effect1_texture_4788_1847">
<feMergeNode in="displacedImage"/>
</feMerge>
</filter>
</defs>
</svg>
