<svg width="333" height="196" viewBox="0 0 333 196" fill="none" xmlns="http://www.w3.org/2000/svg">
<g filter="url(#filter0_g_4197_215)">
<path d="M111.311 33.0173C134.422 14.8523 145.978 5.76975 159.175 3.84544C163.959 3.14787 168.819 3.14787 173.604 3.84544C186.801 5.76975 198.357 14.8523 221.468 33.0173C294.546 90.4541 331.084 119.173 329.401 145.426C328.824 154.43 325.821 163.11 320.711 170.545C305.811 192.227 259.337 192.227 166.389 192.227C73.4417 192.227 26.9678 192.227 12.0679 170.545C6.95799 163.11 3.95522 154.43 3.37789 145.426C1.69448 119.173 38.2332 90.4541 111.311 33.0173Z" fill="#EA674B"/>
</g>
<ellipse cx="166.389" cy="119.096" rx="15.5" ry="8.5" fill="#131313"/>
<ellipse cx="134.931" cy="92.0971" rx="26.5" ry="19.5" transform="rotate(-23.2242 134.931 92.0971)" fill="white"/>
<ellipse cx="26.5" cy="19.5" rx="26.5" ry="19.5" transform="matrix(-0.918969 -0.394329 -0.394329 0.918969 231.514 84.627)" fill="white"/>
<ellipse cx="134.931" cy="92.096" rx="12.5" ry="9.5" transform="rotate(-23.2242 134.931 92.096)" fill="#131313"/>
<ellipse cx="12.5" cy="9.5" rx="12.5" ry="9.5" transform="matrix(-0.918969 -0.394329 -0.394329 0.918969 214.705 88.2949)" fill="#131313"/>
<path d="M136.639 147.596L196.639 147.596" stroke="black" stroke-width="5" stroke-linecap="round"/>
<defs>
<filter id="filter0_g_4197_215" x="-0.000615358" y="-0.000615358" width="332.781" height="195.55" filterUnits="userSpaceOnUse" color-interpolation-filters="sRGB">
<feFlood flood-opacity="0" result="BackgroundImageFix"/>
<feBlend mode="normal" in="SourceGraphic" in2="BackgroundImageFix" result="shape"/>
<feTurbulence type="fractalNoise" baseFrequency="0.04012582078576088 0.04012582078576088" numOctaves="3" seed="8488" />
<feDisplacementMap in="shape" scale="6.6457619667053223" xChannelSelector="R" yChannelSelector="G" result="displacedImage" width="100%" height="100%" />
<feMerge result="effect1_texture_4197_215">
<feMergeNode in="displacedImage"/>
</feMerge>
</filter>
</defs>
</svg>
