<svg width="277" height="282" viewBox="0 0 277 282" fill="none" xmlns="http://www.w3.org/2000/svg">
<g filter="url(#filter0_g_4788_1868)">
<path d="M44.1262 126.182C84.6034 44.7771 104.842 4.0747 136.83 3.33638C137.645 3.31756 138.461 3.31756 139.276 3.33638C171.264 4.0747 191.503 44.7771 231.98 126.182C265.386 193.365 282.089 226.957 267.451 251.738C267.071 252.381 266.678 253.016 266.271 253.643C250.599 277.783 213.084 277.783 138.053 277.783C63.0227 277.783 25.5074 277.783 9.8353 253.643C9.4286 253.016 9.03519 252.381 8.65533 251.738C-5.98257 226.957 10.7204 193.365 44.1262 126.182Z" fill="#7BC8EF"/>
</g>
<path d="M160.219 216.513C142.435 221.317 123.695 219.099 112.145 216.273C110.744 215.93 109.807 217.772 111.003 218.579C131.839 232.622 150.988 226.051 161.336 218.511C162.454 217.696 161.555 216.152 160.219 216.513Z" fill="#44AFE5"/>
<ellipse cx="114.047" cy="144.738" rx="26.5" ry="16.4844" transform="rotate(-15 114.047 144.738)" fill="white"/>
<ellipse cx="114.047" cy="144.734" rx="12.5" ry="7.77565" transform="rotate(-15 114.047 144.734)" fill="#131313"/>
<ellipse cx="163.05" cy="144.736" rx="26.5" ry="16.4844" transform="rotate(5.70514 163.05 144.736)" fill="white"/>
<ellipse cx="163.052" cy="144.736" rx="12.5" ry="7.77565" transform="rotate(5.70514 163.052 144.736)" fill="#131313"/>
<path d="M137.988 158.322C144.063 158.322 148.988 168.801 148.988 177.361C148.988 185.922 144.063 189.322 137.988 189.322C131.913 189.322 126.988 185.922 126.988 177.361C126.988 168.801 131.913 158.322 137.988 158.322Z" fill="#131313"/>
<path d="M99.9883 194.322C113.005 207.161 142.137 220.414 174.988 194.322" stroke="black" stroke-width="5" stroke-linecap="round"/>
<path d="M83.9883 123.188L189.026 113.323" stroke="black" stroke-width="5" stroke-linecap="round"/>
<defs>
<filter id="filter0_g_4788_1868" x="0.00133777" y="-0.000615358" width="276.103" height="281.107" filterUnits="userSpaceOnUse" color-interpolation-filters="sRGB">
<feFlood flood-opacity="0" result="BackgroundImageFix"/>
<feBlend mode="normal" in="SourceGraphic" in2="BackgroundImageFix" result="shape"/>
<feTurbulence type="fractalNoise" baseFrequency="0.04012582078576088 0.04012582078576088" numOctaves="3" seed="8488" />
<feDisplacementMap in="shape" scale="6.6457619667053223" xChannelSelector="R" yChannelSelector="G" result="displacedImage" width="100%" height="100%" />
<feMerge result="effect1_texture_4788_1868">
<feMergeNode in="displacedImage"/>
</feMerge>
</filter>
</defs>
</svg>
