<svg width="257" height="257" viewBox="0 0 257 257" fill="none" xmlns="http://www.w3.org/2000/svg">
<g filter="url(#filter0_g_4197_218)">
<path d="M3.32227 128.322C3.32227 71.8881 3.32227 43.671 19.6691 25.2193C21.4056 23.2591 23.2591 21.4056 25.2193 19.6691C43.671 3.32227 71.8881 3.32227 128.322 3.32227C184.756 3.32227 212.974 3.32227 231.425 19.6691C233.385 21.4056 235.239 23.2591 236.975 25.2193C253.322 43.671 253.322 71.8881 253.322 128.322C253.322 184.756 253.322 212.974 236.975 231.425C235.239 233.385 233.385 235.239 231.425 236.975C212.974 253.322 184.756 253.322 128.322 253.322C71.8881 253.322 43.671 253.322 25.2193 236.975C23.2591 235.239 21.4056 233.385 19.6691 231.425C3.32227 212.974 3.32227 184.756 3.32227 128.322Z" fill="#2CB67A"/>
</g>
<path d="M131.493 78.3223C131.493 94.3855 118.471 107.407 102.408 107.407C86.3448 107.407 73.3224 94.3856 73.3223 78.3223H131.493Z" fill="white"/>
<path d="M117.247 78.3242C117.246 86.5188 110.603 93.161 102.408 93.1611C94.2133 93.1611 87.5696 86.5189 87.5684 78.3242H117.247Z" fill="#131313"/>
<path d="M182.321 78.3223C182.321 94.3855 169.3 107.407 153.236 107.407C137.173 107.407 124.151 94.3856 124.15 78.3223H182.321Z" fill="white"/>
<path d="M168.075 78.3242C168.074 86.5188 161.431 93.161 153.236 93.1611C145.041 93.1611 138.398 86.5189 138.396 78.3242H168.075Z" fill="#131313"/>
<ellipse cx="127.822" cy="115.822" rx="15.5" ry="8.5" fill="#131313"/>
<path d="M92.3223 140.169C105.489 137.266 138.322 133.202 164.322 140.169" stroke="black" stroke-width="5" stroke-linecap="round"/>
<path d="M71.5788 54.6594C71.0056 54.3262 70.3235 54.2342 69.6825 54.4039C69.0416 54.5736 68.4943 54.9909 68.161 55.5641C67.8277 56.1373 67.7358 56.8194 67.9055 57.4604C68.0752 58.1014 68.4925 58.6487 69.0657 58.9819C69.0657 58.9819 69.0657 58.9819 69.0657 58.9819C71.1886 60.216 73.3801 61.335 75.6159 62.3469C95.9203 71.1148 126.369 75.9973 140.998 53.0558C142.154 51.03 143.206 49.1522 144.352 47.5212C144.501 47.3173 144.594 47.1954 144.724 47.0418C144.788 46.9674 144.834 46.9197 144.853 46.9022C144.861 46.8889 144.896 46.8796 144.731 46.9849C144.535 47.057 144.343 47.3381 143.303 47.1931C142.859 47.1064 142.457 46.837 142.278 46.6559C142.118 46.5025 142.032 46.3733 141.979 46.2862C141.876 46.1039 141.896 46.1104 141.9 46.1328C141.908 46.1595 141.928 46.2305 141.949 46.3319C142.11 47.1239 142.219 48.2986 142.374 49.4555C142.942 54.01 144.281 59.2226 147.981 63.0715C158.117 72.4739 171.45 68.6252 181.717 65.9582C184.165 65.2351 186.228 64.5507 188.67 63.6732C189.294 63.4483 189.803 62.9848 190.085 62.3847C190.367 61.7846 190.399 61.0971 190.174 60.4734C189.949 59.8497 189.486 59.3408 188.886 59.0588C188.285 58.7768 187.598 58.7448 186.974 58.9697C186.974 58.9697 186.974 58.9697 186.974 58.9697C184.619 59.816 182.639 60.4724 180.307 61.161C170.507 63.9662 158.199 66.2835 151.597 59.6184C149.02 56.9531 147.85 53.0173 147.332 48.8027C147.175 47.6838 147.114 46.7039 146.839 45.2877C146.794 45.0762 146.742 44.8648 146.672 44.6422C146.636 44.5277 146.602 44.4267 146.547 44.2876C146.477 44.1103 146.39 43.921 146.266 43.7129C146.141 43.5057 145.977 43.2763 145.735 43.0435C145.456 42.7656 144.921 42.4161 144.342 42.3024C142.983 42.1093 142.622 42.4774 142.16 42.6966C140.881 43.5873 140.735 44.0641 140.301 44.5908C138.826 46.7009 137.85 48.4963 136.647 50.5928C125.27 69.5087 96.8461 66.3303 77.6773 57.7916C75.5859 56.8451 73.5432 55.8014 71.5788 54.6594Z" fill="black"/>
<defs>
<filter id="filter0_g_4197_218" x="-0.000615358" y="-0.000615358" width="256.646" height="256.646" filterUnits="userSpaceOnUse" color-interpolation-filters="sRGB">
<feFlood flood-opacity="0" result="BackgroundImageFix"/>
<feBlend mode="normal" in="SourceGraphic" in2="BackgroundImageFix" result="shape"/>
<feTurbulence type="fractalNoise" baseFrequency="0.04012582078576088 0.04012582078576088" numOctaves="3" seed="8488" />
<feDisplacementMap in="shape" scale="6.6457619667053223" xChannelSelector="R" yChannelSelector="G" result="displacedImage" width="100%" height="100%" />
<feMerge result="effect1_texture_4197_218">
<feMergeNode in="displacedImage"/>
</feMerge>
</filter>
</defs>
</svg>
