<svg width="257" height="257" viewBox="0 0 257 257" fill="none" xmlns="http://www.w3.org/2000/svg">
<g filter="url(#filter0_g_4788_1878)">
<path d="M3.32422 128.322C3.32422 71.8881 3.32422 43.671 19.671 25.2193C21.4076 23.2591 23.2611 21.4056 25.2212 19.6691C43.673 3.32227 71.8901 3.32227 128.324 3.32227C184.758 3.32227 212.975 3.32227 231.427 19.6691C233.387 21.4056 235.241 23.2591 236.977 25.2193C253.324 43.671 253.324 71.8881 253.324 128.322C253.324 184.756 253.324 212.974 236.977 231.425C235.241 233.385 233.387 235.239 231.427 236.975C212.975 253.322 184.758 253.322 128.324 253.322C71.8901 253.322 43.673 253.322 25.2212 236.975C23.2611 235.239 21.4076 233.385 19.671 231.425C3.32422 212.974 3.32422 184.756 3.32422 128.322Z" fill="#2CB67A"/>
</g>
<path d="M144.795 156.507C129.469 152.889 113.384 154.391 103.133 156.475C101.815 156.744 101.042 155 102.213 154.338C120.158 144.184 136.522 148.933 145.707 154.672C146.802 155.356 146.051 156.803 144.795 156.507Z" fill="#208D5E"/>
<path d="M128.062 78.2832C128.061 94.3464 115.04 107.368 98.9766 107.368C82.9132 107.368 69.8908 94.3466 69.8906 78.2832H128.062Z" fill="white"/>
<path d="M113.815 78.2852C113.814 86.4797 107.171 93.1219 98.9766 93.1221C90.7816 93.1221 84.1379 86.4798 84.1367 78.2852H113.815Z" fill="black"/>
<path d="M178.89 78.2832C178.889 94.3464 165.868 107.368 149.805 107.368C133.741 107.368 120.719 94.3466 120.719 78.2832H178.89Z" fill="white"/>
<path d="M164.644 78.2852C164.642 86.4797 157.999 93.1219 149.805 93.1221C141.61 93.1221 134.966 86.4798 134.965 78.2852H164.644Z" fill="black"/>
<path d="M139.891 117.822C139.891 122.517 132.951 124.283 124.391 124.283C115.83 124.283 108.891 122.517 108.891 117.822C108.891 113.128 115.83 107.283 124.391 107.283C132.951 107.283 139.891 113.128 139.891 117.822Z" fill="#131313"/>
<path d="M88.8906 140.13C102.057 137.227 134.891 133.163 160.891 140.13" stroke="black" stroke-width="5" stroke-linecap="round"/>
<path d="M66.1472 54.6203C65.574 54.2871 64.8919 54.1952 64.2509 54.3649C63.6099 54.5345 63.0626 54.9519 62.7294 55.5251C62.3961 56.0983 62.3042 56.7804 62.4739 57.4213C62.6435 58.0623 63.0609 58.6096 63.6341 58.9429C63.6341 58.9429 63.6341 58.9429 63.6341 58.9429C65.7569 60.1769 67.9485 61.2959 70.1843 62.3078C90.4887 71.0757 120.938 75.9582 135.566 53.0168C136.723 50.991 137.775 49.1131 138.921 47.4821C139.069 47.2783 139.162 47.1563 139.292 47.0028C139.356 46.9283 139.403 46.8807 139.421 46.8631C139.43 46.8499 139.465 46.8405 139.299 46.9459C139.103 47.0179 138.911 47.2991 137.871 47.1541C137.428 47.0673 137.026 46.7979 136.846 46.6168C136.687 46.4634 136.6 46.3342 136.547 46.2471C136.444 46.0648 136.465 46.0714 136.468 46.0938C136.477 46.1204 136.496 46.1914 136.518 46.2928C136.678 47.0848 136.787 48.2595 136.943 49.4165C137.51 53.9709 138.85 59.1836 142.55 63.0325C152.686 72.4348 166.018 68.5861 176.285 65.9191C178.734 65.196 180.797 64.5116 183.239 63.6341C183.862 63.4092 184.371 62.9457 184.653 62.3457C184.935 61.7456 184.967 61.058 184.742 60.4343C184.517 59.8106 184.054 59.3018 183.454 59.0198C182.854 58.7378 182.166 58.7057 181.543 58.9306C181.543 58.9306 181.543 58.9306 181.543 58.9306C179.188 59.7769 177.207 60.4334 174.876 61.122C165.075 63.9272 152.767 66.2445 146.166 59.5793C143.589 56.914 142.418 52.9782 141.9 48.7637C141.744 47.6448 141.683 46.6649 141.407 45.2486C141.362 45.0372 141.31 44.8258 141.241 44.6031C141.205 44.4887 141.171 44.3877 141.116 44.2485C141.045 44.0712 140.959 43.8819 140.834 43.6738C140.709 43.4666 140.545 43.2372 140.303 43.0045C140.024 42.7265 139.489 42.3771 138.911 42.2633C137.551 42.0702 137.19 42.4384 136.728 42.6575C135.449 43.5482 135.303 44.0251 134.869 44.5518C133.394 46.6618 132.418 48.4572 131.215 50.5538C119.839 69.4697 91.4144 66.2913 72.2456 57.7525C70.1543 56.806 68.1116 55.7623 66.1472 54.6203Z" fill="black"/>
<defs>
<filter id="filter0_g_4788_1878" x="0.00133777" y="-0.000615358" width="256.646" height="256.646" filterUnits="userSpaceOnUse" color-interpolation-filters="sRGB">
<feFlood flood-opacity="0" result="BackgroundImageFix"/>
<feBlend mode="normal" in="SourceGraphic" in2="BackgroundImageFix" result="shape"/>
<feTurbulence type="fractalNoise" baseFrequency="0.04012582078576088 0.04012582078576088" numOctaves="3" seed="8488" />
<feDisplacementMap in="shape" scale="6.6457619667053223" xChannelSelector="R" yChannelSelector="G" result="displacedImage" width="100%" height="100%" />
<feMerge result="effect1_texture_4788_1878">
<feMergeNode in="displacedImage"/>
</feMerge>
</filter>
</defs>
</svg>
