<svg width="258" height="258" viewBox="0 0 258 258" fill="none" xmlns="http://www.w3.org/2000/svg">
<g filter="url(#filter0_g_4788_1834)">
<path d="M254.324 128.822C254.324 198.134 198.136 254.322 128.824 254.322C59.5125 254.322 3.32422 198.134 3.32422 128.822C3.32422 59.5105 59.5125 3.32227 128.824 3.32227C198.136 3.32227 254.324 59.5105 254.324 128.822Z" fill="#FDC8DE"/>
</g>
<circle cx="100.281" cy="102.408" r="27.5622" transform="rotate(0.477397 100.281 102.408)" fill="white"/>
<ellipse cx="101.439" cy="102.446" rx="10.383" ry="11.0319" transform="rotate(0.477397 101.439 102.446)" fill="#131313"/>
<circle cx="151.246" cy="102.834" r="27.5622" transform="rotate(0.477397 151.246 102.834)" fill="white"/>
<circle cx="150.108" cy="102.852" r="11.0319" transform="rotate(0.477397 150.108 102.852)" fill="#131313"/>
<path d="M126.389 128.814C110.05 117.357 83.5731 114.114 70.1511 118.771L70.9807 135.286L186.818 136.251L186.956 119.744C152.791 110.654 132.329 123.622 126.389 128.814Z" fill="#FDC8DE"/>
<path fill-rule="evenodd" clip-rule="evenodd" d="M173.879 137.442C171.261 157.097 150.323 172.288 125.015 172.077C99.7068 171.866 79.0248 156.328 76.7344 136.633L173.879 137.442Z" fill="#131313"/>
<path d="M98.9742 61.4626C88.5814 59.4501 75.7918 64.5599 70.5251 74.1728" stroke="#1F2028" stroke-width="5" stroke-linecap="round"/>
<path d="M154.199 61.9216C164.624 60.0826 177.327 65.4047 182.432 75.1041" stroke="#1F2028" stroke-width="5" stroke-linecap="round"/>
<path d="M137.597 124.902C137.553 130.278 132.008 133.199 125.198 133.142C118.389 133.086 112.894 130.072 112.939 124.697C112.983 119.321 118.551 113.618 125.361 113.675C132.17 113.732 137.642 119.526 137.597 124.902Z" fill="#131313"/>
<path d="M152.398 177.973C132.939 183.238 112.353 180.761 99.8948 177.703C98.4918 177.358 97.5583 179.204 98.7573 180.01C121.487 195.289 142.391 188.074 153.507 179.983C154.627 179.168 153.736 177.611 152.398 177.973Z" fill="#F193BA"/>
<defs>
<filter id="filter0_g_4788_1834" x="0.00133777" y="-0.000615358" width="257.646" height="257.646" filterUnits="userSpaceOnUse" color-interpolation-filters="sRGB">
<feFlood flood-opacity="0" result="BackgroundImageFix"/>
<feBlend mode="normal" in="SourceGraphic" in2="BackgroundImageFix" result="shape"/>
<feTurbulence type="fractalNoise" baseFrequency="0.04012582078576088 0.04012582078576088" numOctaves="3" seed="8488" />
<feDisplacementMap in="shape" scale="6.6457619667053223" xChannelSelector="R" yChannelSelector="G" result="displacedImage" width="100%" height="100%" />
<feMerge result="effect1_texture_4788_1834">
<feMergeNode in="displacedImage"/>
</feMerge>
</filter>
</defs>
</svg>
