<svg width="361" height="276" viewBox="0 0 361 276" fill="none" xmlns="http://www.w3.org/2000/svg">
<g filter="url(#filter0_f_4919_882)">
<path d="M79.8648 26.5147C81.2251 22.2092 87.5386 22.9879 87.812 27.4949C88.0076 30.7189 91.6992 32.4427 94.2967 30.523C97.9279 27.8393 102.578 32.1802 100.15 35.9872C98.4132 38.7104 100.387 42.2749 103.616 42.2485C108.131 42.2117 109.342 48.4569 105.14 50.1097C102.134 51.2919 101.636 55.3355 104.264 57.2127C107.938 59.8368 105.247 65.6008 100.876 64.468C97.7494 63.6578 94.9691 66.636 95.9922 69.6996C97.4225 73.9824 91.857 77.0634 88.9867 73.5779C86.9335 71.0846 82.9337 71.8598 81.9606 74.9397C80.6004 79.2452 74.2868 78.4666 74.0134 73.9596C73.8178 70.7356 70.1263 69.0117 67.5288 70.9315C63.8976 73.6152 59.2475 69.2742 61.6754 65.4673C63.4122 62.744 61.4389 59.1796 58.2091 59.2059C53.694 59.2427 52.4835 52.9975 56.6854 51.3448C59.6912 50.1625 60.1899 46.1189 57.5615 44.2418C53.887 41.6176 56.5786 35.8537 60.9495 36.9864C64.0761 37.7967 66.8563 34.8185 65.8332 31.7548C64.4029 27.4721 69.9684 24.391 72.8388 27.8765C74.892 30.3699 78.8918 29.5946 79.8648 26.5147Z" fill="#C7A8F6" fill-opacity="0.2"/>
</g>
<g filter="url(#filter1_f_4919_882)">
<path d="M310.672 116.598C311.495 112.158 317.856 112.158 318.679 116.598C319.268 119.774 323.143 121.033 325.486 118.809C328.761 115.701 333.908 119.441 331.964 123.516C330.574 126.431 332.969 129.728 336.171 129.306C340.648 128.717 342.613 134.767 338.645 136.922C335.807 138.463 335.807 142.537 338.645 144.078C342.613 146.233 340.648 152.283 336.171 151.694C332.969 151.272 330.574 154.569 331.964 157.484C333.908 161.559 328.761 165.299 325.486 162.191C323.143 159.967 319.268 161.226 318.679 164.402C317.856 168.842 311.495 168.842 310.672 164.402C310.083 161.226 306.209 159.967 303.866 162.191C300.59 165.299 295.444 161.559 297.387 157.484C298.778 154.569 296.383 151.272 293.181 151.694C288.704 152.283 286.738 146.233 290.706 144.078C293.545 142.537 293.545 138.463 290.706 136.922C286.738 134.767 288.704 128.717 293.181 129.306C296.383 129.728 298.778 126.431 297.387 123.516C295.444 119.441 300.59 115.701 303.866 118.809C306.209 121.033 310.083 119.774 310.672 116.598Z" fill="#C7A8F6" fill-opacity="0.2"/>
</g>
<g filter="url(#filter2_f_4919_882)">
<path d="M49.6812 200.323C51.0415 196.018 57.3551 196.796 57.6284 201.303C57.824 204.527 61.5156 206.251 64.1131 204.332C67.7443 201.648 72.3944 205.989 69.9664 209.796C68.2296 212.519 70.2029 216.083 73.4327 216.057C77.9479 216.02 79.1583 222.266 74.9564 223.918C71.9506 225.101 71.4519 229.144 74.0804 231.021C77.7548 233.645 75.0633 239.409 70.6924 238.277C67.5658 237.466 64.7855 240.445 65.8086 243.508C67.2389 247.791 61.6734 250.872 58.8031 247.386C56.7499 244.893 52.7501 245.668 51.777 248.748C50.4168 253.054 44.1032 252.275 43.8298 247.768C43.6342 244.544 39.9427 242.82 37.3452 244.74C33.714 247.424 29.0639 243.083 31.4918 239.276C33.2286 236.553 31.2553 232.988 28.0255 233.014C23.5104 233.051 22.2999 226.806 26.5018 225.153C29.5076 223.971 30.0063 219.927 27.3779 218.05C23.7034 215.426 26.395 209.662 30.7659 210.795C33.8925 211.605 36.6727 208.627 35.6496 205.563C34.2193 201.281 39.7848 198.2 42.6552 201.685C44.7084 204.178 48.7082 203.403 49.6812 200.323Z" fill="#C7A8F6" fill-opacity="0.2"/>
</g>
<g filter="url(#filter3_g_4919_882)">
<path d="M140.798 70.6664C162.595 48.4445 198.397 48.4445 220.194 70.6664C224.536 75.092 229.587 78.7606 235.139 81.5202C263.016 95.3768 274.079 129.414 259.674 157.005C256.805 162.499 254.875 168.435 253.965 174.566C249.397 205.352 220.433 226.388 189.732 221.218C183.618 220.189 177.374 220.189 171.26 221.218C140.559 226.388 111.595 205.352 107.027 174.566C106.117 168.435 104.188 162.499 101.319 157.005C86.9129 129.414 97.9761 95.3768 125.854 81.5202C131.406 78.7606 136.457 75.092 140.798 70.6664Z" fill="#C7A8F6"/>
</g>
<path d="M163.5 94.6806C160.338 93.9741 152.631 94.3715 147.1 101.613" stroke="black" stroke-width="3.5" stroke-linecap="round"/>
<path d="M200.167 96.1826C203.388 95.8259 211.005 97.063 215.711 104.865" stroke="black" stroke-width="3.5" stroke-linecap="round"/>
<path d="M194.671 170.318C194.118 180.52 186.486 183.331 177.387 182.837C168.288 182.343 161.166 178.733 161.72 168.531C162.273 158.328 170.292 145.398 179.391 145.891C188.491 146.385 195.225 160.116 194.671 170.318Z" fill="#131313"/>
<circle cx="164.046" cy="119.898" r="17" transform="rotate(3.10505 164.046 119.898)" fill="white"/>
<circle cx="169.547" cy="115.422" r="8" transform="rotate(3.10505 169.547 115.422)" fill="#131313"/>
<circle cx="196.05" cy="121.896" r="17" transform="rotate(3.10505 196.05 121.896)" fill="white"/>
<circle cx="200.551" cy="116.424" r="8" transform="rotate(3.10505 200.551 116.424)" fill="#131313"/>
<path d="M189.532 136.065C189.338 139.65 185.017 140.78 179.778 140.496C174.539 140.211 170.366 138.62 170.56 135.036C170.755 131.451 175.243 127.23 180.482 127.515C185.721 127.799 189.727 132.48 189.532 136.065Z" fill="#131313"/>
<path d="M192.266 186.885C181.524 188.994 170.434 187.308 163.465 185.425C162.572 185.184 161.954 186.347 162.721 186.864C174.792 195.002 186.34 192.054 192.864 188.184C193.627 187.731 193.136 186.714 192.266 186.885Z" fill="#9575C4"/>
<defs>
<filter id="filter0_f_4919_882" x="39.0977" y="8.66797" width="83.6289" height="84.1191" filterUnits="userSpaceOnUse" color-interpolation-filters="sRGB">
<feFlood flood-opacity="0" result="BackgroundImageFix"/>
<feBlend mode="normal" in="SourceGraphic" in2="BackgroundImageFix" result="shape"/>
<feGaussianBlur stdDeviation="7.5" result="effect1_foregroundBlur_4919_882"/>
</filter>
<filter id="filter1_f_4919_882" x="273.566" y="98.2676" width="82.2188" height="84.4648" filterUnits="userSpaceOnUse" color-interpolation-filters="sRGB">
<feFlood flood-opacity="0" result="BackgroundImageFix"/>
<feBlend mode="normal" in="SourceGraphic" in2="BackgroundImageFix" result="shape"/>
<feGaussianBlur stdDeviation="7.5" result="effect1_foregroundBlur_4919_882"/>
</filter>
<filter id="filter2_f_4919_882" x="8.91406" y="182.477" width="83.6289" height="84.1191" filterUnits="userSpaceOnUse" color-interpolation-filters="sRGB">
<feFlood flood-opacity="0" result="BackgroundImageFix"/>
<feBlend mode="normal" in="SourceGraphic" in2="BackgroundImageFix" result="shape"/>
<feGaussianBlur stdDeviation="7.5" result="effect1_foregroundBlur_4919_882"/>
</filter>
<filter id="filter3_g_4919_882" x="92.7014" y="51.7053" width="175.589" height="172.589" filterUnits="userSpaceOnUse" color-interpolation-filters="sRGB">
<feFlood flood-opacity="0" result="BackgroundImageFix"/>
<feBlend mode="normal" in="SourceGraphic" in2="BackgroundImageFix" result="shape"/>
<feTurbulence type="fractalNoise" baseFrequency="0.058104366064071655 0.058104366064071655" numOctaves="3" seed="8488" />
<feDisplacementMap in="shape" scale="4.5894432067871094" xChannelSelector="R" yChannelSelector="G" result="displacedImage" width="100%" height="100%" />
<feMerge result="effect1_texture_4919_882">
<feMergeNode in="displacedImage"/>
</feMerge>
</filter>
</defs>
</svg>
