<svg width="361" height="276" viewBox="0 0 361 276" fill="none" xmlns="http://www.w3.org/2000/svg">
<g filter="url(#filter0_f_4919_867)">
<path d="M79.8609 26.5147C81.2212 22.2092 87.5347 22.9879 87.8081 27.4949C88.0037 30.7189 91.6953 32.4427 94.2928 30.523C97.924 27.8393 102.574 32.1802 100.146 35.9872C98.4093 38.7104 100.383 42.2749 103.612 42.2485C108.128 42.2117 109.338 48.4569 105.136 50.1097C102.13 51.2919 101.632 55.3355 104.26 57.2127C107.935 59.8368 105.243 65.6008 100.872 64.468C97.7454 63.6578 94.9652 66.636 95.9883 69.6996C97.4186 73.9824 91.8531 77.0634 88.9828 73.5779C86.9296 71.0846 82.9297 71.8598 81.9567 74.9397C80.5965 79.2452 74.2829 78.4666 74.0095 73.9596C73.8139 70.7356 70.1223 69.0117 67.5248 70.9315C63.8937 73.6152 59.2435 69.2742 61.6715 65.4673C63.4083 62.744 61.435 59.1796 58.2052 59.2059C53.6901 59.2427 52.4796 52.9975 56.6815 51.3448C59.6873 50.1625 60.186 46.1189 57.5576 44.2418C53.8831 41.6176 56.5747 35.8537 60.9455 36.9864C64.0722 37.7967 66.8524 34.8185 65.8293 31.7548C64.399 27.4721 69.9645 24.391 72.8348 27.8765C74.8881 30.3699 78.8879 29.5946 79.8609 26.5147Z" fill="#EA674B" fill-opacity="0.2"/>
</g>
<g filter="url(#filter1_f_4919_867)">
<path d="M310.672 116.598C311.495 112.158 317.856 112.158 318.679 116.598C319.268 119.774 323.143 121.033 325.486 118.809C328.761 115.701 333.908 119.441 331.964 123.516C330.574 126.431 332.969 129.728 336.171 129.306C340.648 128.717 342.613 134.767 338.645 136.922C335.807 138.463 335.807 142.537 338.645 144.078C342.613 146.233 340.648 152.283 336.171 151.694C332.969 151.272 330.574 154.569 331.964 157.484C333.908 161.559 328.761 165.299 325.486 162.191C323.143 159.967 319.268 161.226 318.679 164.402C317.856 168.842 311.495 168.842 310.672 164.402C310.083 161.226 306.209 159.967 303.866 162.191C300.59 165.299 295.444 161.559 297.387 157.484C298.778 154.569 296.383 151.272 293.181 151.694C288.704 152.283 286.738 146.233 290.706 144.078C293.545 142.537 293.545 138.463 290.706 136.922C286.738 134.767 288.704 128.717 293.181 129.306C296.383 129.728 298.778 126.431 297.387 123.516C295.444 119.441 300.59 115.701 303.866 118.809C306.209 121.033 310.083 119.774 310.672 116.598Z" fill="#EA674B" fill-opacity="0.2"/>
</g>
<g filter="url(#filter2_f_4919_867)">
<path d="M49.6773 200.323C51.0376 196.018 57.3511 196.796 57.6245 201.303C57.8201 204.527 61.5117 206.251 64.1092 204.332C67.7404 201.648 72.3905 205.989 69.9625 209.796C68.2257 212.519 70.199 216.083 73.4288 216.057C77.944 216.02 79.1544 222.266 74.9525 223.918C71.9467 225.101 71.448 229.144 74.0765 231.021C77.7509 233.645 75.0594 239.409 70.6885 238.277C67.5619 237.466 64.7816 240.445 65.8047 243.508C67.235 247.791 61.6695 250.872 58.7992 247.386C56.746 244.893 52.7462 245.668 51.7731 248.748C50.4129 253.054 44.0993 252.275 43.8259 247.768C43.6303 244.544 39.9388 242.82 37.3413 244.74C33.7101 247.424 29.06 243.083 31.4879 239.276C33.2247 236.553 31.2514 232.988 28.0216 233.014C23.5065 233.051 22.296 226.806 26.4979 225.153C29.5037 223.971 30.0024 219.927 27.374 218.05C23.6995 215.426 26.3911 209.662 30.762 210.795C33.8886 211.605 36.6688 208.627 35.6457 205.563C34.2154 201.281 39.7809 198.2 42.6513 201.685C44.7045 204.178 48.7043 203.403 49.6773 200.323Z" fill="#EA674B" fill-opacity="0.2"/>
</g>
<g filter="url(#filter3_g_4919_867)">
<path d="M151.617 103.562C163.735 94.0426 169.794 89.2827 176.714 88.2742C179.222 87.9086 181.77 87.9086 184.279 88.2742C191.198 89.2827 197.257 94.0426 209.375 103.562C247.691 133.664 266.85 148.714 265.967 162.473C265.664 167.192 264.09 171.74 261.411 175.637C253.598 187 229.231 187 180.496 187C131.761 187 107.394 187 99.5816 175.637C96.9024 171.74 95.328 167.192 95.0253 162.473C94.1426 148.714 113.301 133.664 151.617 103.562Z" fill="#EA674B"/>
</g>
<path d="M191.349 164.969C183.805 166.17 176.016 165.662 170.662 164.877C169.883 164.763 169.542 165.782 170.274 166.071C178.949 169.494 186.852 168.047 191.72 165.987C192.417 165.693 192.096 164.85 191.349 164.969Z" fill="#C04B32"/>
<path d="M187.996 146.385C187.996 148.87 184.414 150 179.996 150C175.578 150 171.996 148.87 171.996 146.385C171.996 143.9 175.578 141 179.996 141C184.414 141 187.996 143.9 187.996 146.385Z" fill="#131313"/>
<ellipse cx="162.594" cy="133.507" rx="14" ry="12" transform="rotate(-23.2242 162.594 133.507)" fill="white"/>
<ellipse cx="163.679" cy="135.688" rx="6" ry="5.5" transform="rotate(-23.2242 163.679 135.688)" fill="#131313"/>
<ellipse cx="14" cy="12" rx="14" ry="12" transform="matrix(-0.918969 -0.394329 -0.394329 0.918969 214.996 128)" fill="white"/>
<ellipse cx="6" cy="5.5" rx="6" ry="5.5" transform="matrix(-0.918969 -0.394329 -0.394329 0.918969 204.996 133)" fill="#131313"/>
<path d="M160.996 161C160.996 161 166.756 160.021 170.626 160.001C174.694 159.981 176.709 161.02 180.777 161C184.647 160.98 186.538 159.956 190.407 160.001C193.882 160.042 198.996 161 198.996 161" stroke="black" stroke-width="3.5" stroke-linecap="round"/>
<defs>
<filter id="filter0_f_4919_867" x="39.0938" y="8.66797" width="83.6289" height="84.1191" filterUnits="userSpaceOnUse" color-interpolation-filters="sRGB">
<feFlood flood-opacity="0" result="BackgroundImageFix"/>
<feBlend mode="normal" in="SourceGraphic" in2="BackgroundImageFix" result="shape"/>
<feGaussianBlur stdDeviation="7.5" result="effect1_foregroundBlur_4919_867"/>
</filter>
<filter id="filter1_f_4919_867" x="273.566" y="98.2676" width="82.2188" height="84.4648" filterUnits="userSpaceOnUse" color-interpolation-filters="sRGB">
<feFlood flood-opacity="0" result="BackgroundImageFix"/>
<feBlend mode="normal" in="SourceGraphic" in2="BackgroundImageFix" result="shape"/>
<feGaussianBlur stdDeviation="7.5" result="effect1_foregroundBlur_4919_867"/>
</filter>
<filter id="filter2_f_4919_867" x="8.91016" y="182.477" width="83.6289" height="84.1191" filterUnits="userSpaceOnUse" color-interpolation-filters="sRGB">
<feFlood flood-opacity="0" result="BackgroundImageFix"/>
<feBlend mode="normal" in="SourceGraphic" in2="BackgroundImageFix" result="shape"/>
<feGaussianBlur stdDeviation="7.5" result="effect1_foregroundBlur_4919_867"/>
</filter>
<filter id="filter3_g_4919_867" x="93.2538" y="86.2577" width="174.485" height="102.485" filterUnits="userSpaceOnUse" color-interpolation-filters="sRGB">
<feFlood flood-opacity="0" result="BackgroundImageFix"/>
<feBlend mode="normal" in="SourceGraphic" in2="BackgroundImageFix" result="shape"/>
<feTurbulence type="fractalNoise" baseFrequency="0.076528720557689667 0.076528720557689667" numOctaves="3" seed="8488" />
<feDisplacementMap in="shape" scale="3.4845304489135742" xChannelSelector="R" yChannelSelector="G" result="displacedImage" width="100%" height="100%" />
<feMerge result="effect1_texture_4919_867">
<feMergeNode in="displacedImage"/>
</feMerge>
</filter>
</defs>
</svg>
