<svg width="361" height="276" viewBox="0 0 361 276" fill="none" xmlns="http://www.w3.org/2000/svg">
<g filter="url(#filter0_f_4919_927)">
<path d="M79.8648 26.5147C81.2251 22.2092 87.5386 22.9879 87.812 27.4949C88.0076 30.7189 91.6992 32.4427 94.2967 30.523C97.9279 27.8393 102.578 32.1802 100.15 35.9872C98.4132 38.7104 100.387 42.2749 103.616 42.2485C108.131 42.2117 109.342 48.4569 105.14 50.1097C102.134 51.2919 101.636 55.3355 104.264 57.2127C107.938 59.8368 105.247 65.6008 100.876 64.468C97.7494 63.6578 94.9691 66.636 95.9922 69.6996C97.4225 73.9824 91.857 77.0634 88.9867 73.5779C86.9335 71.0846 82.9337 71.8598 81.9606 74.9397C80.6004 79.2452 74.2868 78.4666 74.0134 73.9596C73.8178 70.7356 70.1263 69.0117 67.5288 70.9315C63.8976 73.6152 59.2475 69.2742 61.6754 65.4673C63.4122 62.744 61.4389 59.1796 58.2091 59.2059C53.694 59.2427 52.4835 52.9975 56.6854 51.3448C59.6912 50.1625 60.1899 46.1189 57.5615 44.2418C53.887 41.6176 56.5786 35.8537 60.9495 36.9864C64.0761 37.7967 66.8563 34.8185 65.8332 31.7548C64.4029 27.4721 69.9684 24.391 72.8388 27.8765C74.892 30.3699 78.8918 29.5946 79.8648 26.5147Z" fill="#FDC8DE" fill-opacity="0.2"/>
</g>
<g filter="url(#filter1_f_4919_927)">
<path d="M310.68 116.598C311.503 112.158 317.864 112.158 318.687 116.598C319.276 119.774 323.151 121.033 325.494 118.809C328.769 115.701 333.916 119.441 331.972 123.516C330.582 126.431 332.976 129.728 336.179 129.306C340.655 128.717 342.621 134.767 338.653 136.922C335.815 138.463 335.815 142.537 338.653 144.078C342.621 146.233 340.655 152.283 336.179 151.694C332.976 151.272 330.582 154.569 331.972 157.484C333.916 161.559 328.769 165.299 325.494 162.191C323.151 159.967 319.276 161.226 318.687 164.402C317.864 168.842 311.503 168.842 310.68 164.402C310.091 161.226 306.216 159.967 303.873 162.191C300.598 165.299 295.451 161.559 297.395 157.484C298.786 154.569 296.391 151.272 293.189 151.694C288.712 152.283 286.746 146.233 290.714 144.078C293.553 142.537 293.553 138.463 290.714 136.922C286.746 134.767 288.712 128.717 293.189 129.306C296.391 129.728 298.786 126.431 297.395 123.516C295.451 119.441 300.598 115.701 303.873 118.809C306.216 121.033 310.091 119.774 310.68 116.598Z" fill="#FDC8DE" fill-opacity="0.2"/>
</g>
<g filter="url(#filter2_f_4919_927)">
<path d="M49.6812 200.323C51.0415 196.018 57.3551 196.796 57.6284 201.303C57.824 204.527 61.5156 206.251 64.1131 204.332C67.7443 201.648 72.3944 205.989 69.9664 209.796C68.2296 212.519 70.2029 216.083 73.4327 216.057C77.9479 216.02 79.1583 222.266 74.9564 223.918C71.9506 225.101 71.4519 229.144 74.0804 231.021C77.7548 233.645 75.0633 239.409 70.6924 238.277C67.5658 237.466 64.7855 240.445 65.8086 243.508C67.2389 247.791 61.6734 250.872 58.8031 247.386C56.7499 244.893 52.7501 245.668 51.777 248.748C50.4168 253.054 44.1032 252.275 43.8298 247.768C43.6342 244.544 39.9427 242.82 37.3452 244.74C33.714 247.424 29.0639 243.083 31.4918 239.276C33.2286 236.553 31.2553 232.988 28.0255 233.014C23.5104 233.051 22.2999 226.806 26.5018 225.153C29.5076 223.971 30.0063 219.927 27.3779 218.05C23.7034 215.426 26.395 209.662 30.7659 210.795C33.8925 211.605 36.6727 208.627 35.6496 205.563C34.2193 201.281 39.7848 198.2 42.6552 201.685C44.7084 204.178 48.7082 203.403 49.6812 200.323Z" fill="#FDC8DE" fill-opacity="0.2"/>
</g>
<g filter="url(#filter3_g_4919_927)">
<path d="M265.137 137.461C265.137 184.444 227.049 222.531 180.066 222.531C133.083 222.531 94.9961 184.444 94.9961 137.461C94.9961 90.4779 133.083 52.3906 180.066 52.3906C227.049 52.3906 265.137 90.4779 265.137 137.461Z" fill="#FDC8DE"/>
</g>
<circle cx="160.718" cy="119.555" r="18.6831" transform="rotate(0.477397 160.718 119.555)" fill="white"/>
<ellipse cx="161.503" cy="119.581" rx="7.03812" ry="7.478" transform="rotate(0.477397 161.503 119.581)" fill="#131313"/>
<circle cx="195.265" cy="119.844" r="18.6831" transform="rotate(0.477397 195.265 119.844)" fill="white"/>
<circle cx="194.494" cy="119.856" r="7.478" transform="rotate(0.477397 194.494 119.856)" fill="#131313"/>
<path d="M178.417 137.455C167.341 129.689 149.394 127.491 140.296 130.647L140.858 141.842L219.379 142.496L219.472 131.307C196.314 125.146 182.443 133.936 178.417 137.455Z" fill="#FDC8DE"/>
<path d="M210.602 143.308C208.826 156.63 194.635 166.927 177.481 166.784C160.326 166.641 146.308 156.11 144.754 142.76L210.602 143.308Z" fill="#131313"/>
<path d="M159.833 91.8024C152.789 90.4382 144.119 93.9019 140.549 100.418" stroke="#1F2028" stroke-width="3.5" stroke-linecap="round"/>
<path d="M197.262 92.1152C204.328 90.8686 212.939 94.4762 216.4 101.051" stroke="#1F2028" stroke-width="3.5" stroke-linecap="round"/>
<path d="M186.011 134.807C185.981 138.451 182.223 140.431 177.607 140.393C172.991 140.354 169.266 138.312 169.297 134.668C169.327 131.024 173.101 127.158 177.717 127.197C182.333 127.235 186.042 131.163 186.011 134.807Z" fill="#131313"/>
<path d="M196.045 170.778C182.855 174.347 168.9 172.668 160.456 170.595C159.505 170.362 158.872 171.613 159.685 172.159C175.092 182.516 189.262 177.625 196.797 172.141C197.556 171.588 196.952 170.533 196.045 170.778Z" fill="#F193BA"/>
<defs>
<filter id="filter0_f_4919_927" x="39.0977" y="8.66797" width="83.6289" height="84.1191" filterUnits="userSpaceOnUse" color-interpolation-filters="sRGB">
<feFlood flood-opacity="0" result="BackgroundImageFix"/>
<feBlend mode="normal" in="SourceGraphic" in2="BackgroundImageFix" result="shape"/>
<feGaussianBlur stdDeviation="7.5" result="effect1_foregroundBlur_4919_927"/>
</filter>
<filter id="filter1_f_4919_927" x="273.574" y="98.2676" width="82.2188" height="84.4648" filterUnits="userSpaceOnUse" color-interpolation-filters="sRGB">
<feFlood flood-opacity="0" result="BackgroundImageFix"/>
<feBlend mode="normal" in="SourceGraphic" in2="BackgroundImageFix" result="shape"/>
<feGaussianBlur stdDeviation="7.5" result="effect1_foregroundBlur_4919_927"/>
</filter>
<filter id="filter2_f_4919_927" x="8.91406" y="182.477" width="83.6289" height="84.1191" filterUnits="userSpaceOnUse" color-interpolation-filters="sRGB">
<feFlood flood-opacity="0" result="BackgroundImageFix"/>
<feBlend mode="normal" in="SourceGraphic" in2="BackgroundImageFix" result="shape"/>
<feGaussianBlur stdDeviation="7.5" result="effect1_foregroundBlur_4919_927"/>
</filter>
<filter id="filter3_g_4919_927" x="92.7437" y="50.1382" width="174.645" height="174.645" filterUnits="userSpaceOnUse" color-interpolation-filters="sRGB">
<feFlood flood-opacity="0" result="BackgroundImageFix"/>
<feBlend mode="normal" in="SourceGraphic" in2="BackgroundImageFix" result="shape"/>
<feTurbulence type="fractalNoise" baseFrequency="0.059195630252361298 0.059195630252361298" numOctaves="3" seed="8488" />
<feDisplacementMap in="shape" scale="4.5048370361328125" xChannelSelector="R" yChannelSelector="G" result="displacedImage" width="100%" height="100%" />
<feMerge result="effect1_texture_4919_927">
<feMergeNode in="displacedImage"/>
</feMerge>
</filter>
</defs>
</svg>
