<svg width="361" height="276" viewBox="0 0 361 276" fill="none" xmlns="http://www.w3.org/2000/svg">
<g filter="url(#filter0_f_4919_912)">
<path d="M79.8609 26.5147C81.2212 22.2092 87.5347 22.9879 87.8081 27.4949C88.0037 30.7189 91.6953 32.4427 94.2928 30.523C97.924 27.8393 102.574 32.1802 100.146 35.9872C98.4093 38.7104 100.383 42.2749 103.612 42.2485C108.128 42.2117 109.338 48.4569 105.136 50.1097C102.13 51.2919 101.632 55.3355 104.26 57.2127C107.935 59.8368 105.243 65.6008 100.872 64.468C97.7454 63.6578 94.9652 66.636 95.9883 69.6996C97.4186 73.9824 91.8531 77.0634 88.9828 73.5779C86.9296 71.0846 82.9297 71.8598 81.9567 74.9397C80.5965 79.2452 74.2829 78.4666 74.0095 73.9596C73.8139 70.7356 70.1223 69.0117 67.5248 70.9315C63.8937 73.6152 59.2435 69.2742 61.6715 65.4673C63.4083 62.744 61.435 59.1796 58.2052 59.2059C53.6901 59.2427 52.4796 52.9975 56.6815 51.3448C59.6873 50.1625 60.186 46.1189 57.5576 44.2418C53.8831 41.6176 56.5747 35.8537 60.9455 36.9864C64.0722 37.7967 66.8524 34.8185 65.8293 31.7548C64.399 27.4721 69.9645 24.391 72.8348 27.8765C74.8881 30.3699 78.8879 29.5946 79.8609 26.5147Z" fill="#2CB67A" fill-opacity="0.2"/>
</g>
<g filter="url(#filter1_f_4919_912)">
<path d="M310.668 116.598C311.491 112.158 317.853 112.158 318.676 116.598C319.264 119.774 323.139 121.033 325.482 118.809C328.758 115.701 333.904 119.441 331.96 123.516C330.57 126.431 332.965 129.728 336.167 129.306C340.644 128.717 342.609 134.767 338.641 136.922C335.803 138.463 335.803 142.537 338.641 144.078C342.609 146.233 340.644 152.283 336.167 151.694C332.965 151.272 330.57 154.569 331.96 157.484C333.904 161.559 328.758 165.299 325.482 162.191C323.139 159.967 319.264 161.226 318.676 164.402C317.853 168.842 311.491 168.842 310.668 164.402C310.079 161.226 306.205 159.967 303.862 162.191C300.586 165.299 295.44 161.559 297.383 157.484C298.774 154.569 296.379 151.272 293.177 151.694C288.7 152.283 286.734 146.233 290.702 144.078C293.541 142.537 293.541 138.463 290.702 136.922C286.734 134.767 288.7 128.717 293.177 129.306C296.379 129.728 298.774 126.431 297.383 123.516C295.44 119.441 300.586 115.701 303.862 118.809C306.205 121.033 310.079 119.774 310.668 116.598Z" fill="#2CB67A" fill-opacity="0.2"/>
</g>
<g filter="url(#filter2_f_4919_912)">
<path d="M49.6773 200.323C51.0376 196.018 57.3511 196.796 57.6245 201.303C57.8201 204.527 61.5117 206.251 64.1092 204.332C67.7404 201.648 72.3905 205.989 69.9625 209.796C68.2257 212.519 70.199 216.083 73.4288 216.057C77.944 216.02 79.1544 222.266 74.9525 223.918C71.9467 225.101 71.448 229.144 74.0765 231.021C77.7509 233.645 75.0594 239.409 70.6885 238.277C67.5619 237.466 64.7816 240.445 65.8047 243.508C67.235 247.791 61.6695 250.872 58.7992 247.386C56.746 244.893 52.7462 245.668 51.7731 248.748C50.4129 253.054 44.0993 252.275 43.8259 247.768C43.6303 244.544 39.9388 242.82 37.3413 244.74C33.7101 247.424 29.06 243.083 31.4879 239.276C33.2247 236.553 31.2514 232.988 28.0216 233.014C23.5065 233.051 22.296 226.806 26.4979 225.153C29.5037 223.971 30.0024 219.927 27.374 218.05C23.6995 215.426 26.3911 209.662 30.762 210.795C33.8886 211.605 36.6688 208.627 35.6457 205.563C34.2154 201.281 39.7809 198.2 42.6513 201.685C44.7045 204.178 48.7043 203.403 49.6773 200.323Z" fill="#2CB67A" fill-opacity="0.2"/>
</g>
<g filter="url(#filter3_g_4919_912)">
<path d="M95 137.5C95 98.899 95 79.5985 106.181 66.9776C107.369 65.6368 108.637 64.369 109.978 63.1812C122.599 52 141.899 52 180.5 52C219.101 52 238.401 52 251.022 63.1812C252.363 64.369 253.631 65.6368 254.819 66.9776C266 79.5985 266 98.899 266 137.5C266 176.101 266 195.401 254.819 208.022C253.631 209.363 252.363 210.631 251.022 211.819C238.401 223 219.101 223 180.5 223C141.899 223 122.599 223 109.978 211.819C108.637 210.631 107.369 209.363 106.181 208.022C95 195.401 95 176.101 95 137.5Z" fill="#2CB67A"/>
</g>
<path d="M191.764 156.779C181.281 154.304 170.279 155.332 163.268 156.758C162.366 156.941 161.837 155.749 162.638 155.296C174.913 148.35 186.105 151.599 192.388 155.524C193.137 155.992 192.623 156.982 191.764 156.779Z" fill="#208D5E"/>
<path d="M180.316 103.273C180.316 114.26 171.409 123.167 160.422 123.167C149.435 123.167 140.528 114.26 140.527 103.273H180.316Z" fill="white"/>
<path d="M170.57 103.273C170.569 108.878 166.025 113.421 160.42 113.421C154.815 113.421 150.271 108.878 150.27 103.273H170.57Z" fill="black"/>
<path d="M215.086 103.273C215.085 114.26 206.179 123.167 195.191 123.167C184.204 123.167 175.297 114.26 175.297 103.273H215.086Z" fill="white"/>
<path d="M205.34 103.273C205.338 108.878 200.794 113.421 195.189 113.421C189.585 113.421 185.041 108.878 185.039 103.273H205.34Z" fill="black"/>
<path d="M188.411 130.318C188.411 133.529 183.664 134.737 177.809 134.737C171.954 134.737 167.207 133.529 167.207 130.318C167.207 127.107 171.954 123.109 177.809 123.109C183.664 123.109 188.411 127.107 188.411 130.318Z" fill="#131313"/>
<path d="M153.527 145.576C162.533 143.591 184.991 140.811 202.775 145.576" stroke="black" stroke-width="3.5" stroke-linecap="round"/>
<path d="M137.993 87.0529C137.592 86.8196 137.114 86.7553 136.665 86.874C136.217 86.9928 135.834 87.2849 135.6 87.6862C135.367 88.0874 135.303 88.5649 135.422 89.0136C135.54 89.4622 135.832 89.8454 136.234 90.0786C136.234 90.0786 136.234 90.0786 136.234 90.0786C137.687 90.9235 139.187 91.6895 140.718 92.3821C154.615 98.3812 175.458 101.734 185.49 86.0103C186.281 84.6252 187.001 83.3401 187.782 82.2284C187.883 82.0896 187.947 82.0066 188.034 81.9031C188.077 81.8529 188.108 81.8212 188.12 81.8104C188.125 81.8024 188.147 81.7973 188.029 81.8724C187.89 81.924 187.754 82.1215 187.024 82.0196C186.712 81.9587 186.43 81.7695 186.303 81.6419C186.191 81.5339 186.13 81.4427 186.092 81.3807C186.019 81.2512 186.032 81.2533 186.034 81.2672C186.039 81.2839 186.052 81.3313 186.067 81.3998C186.176 81.9365 186.251 82.7416 186.357 83.5332C186.746 86.6512 187.663 90.2269 190.203 92.869C197.164 99.3221 206.292 96.6773 213.319 94.8542C214.994 94.3593 216.406 93.8909 218.077 93.2905C218.514 93.1331 218.87 92.8086 219.067 92.3886C219.265 91.9685 219.287 91.4872 219.13 91.0506C218.972 90.614 218.648 90.2578 218.228 90.0604C217.808 89.8631 217.326 89.8406 216.89 89.9981C216.89 89.9981 216.89 89.9981 216.89 89.9981C215.28 90.5767 213.926 91.0255 212.332 91.4962C205.632 93.4161 197.222 94.9888 192.734 90.4518C190.981 88.6381 190.181 85.9563 189.827 83.0763C189.72 82.3112 189.679 81.6426 189.49 80.6688C189.459 80.5233 189.423 80.3776 189.375 80.2238C189.35 80.1446 189.326 80.0748 189.289 79.9784C189.24 79.8555 189.18 79.7241 189.093 79.5794C189.006 79.4354 188.892 79.2756 188.723 79.1133C188.529 78.9195 188.155 78.6755 187.751 78.5961C186.802 78.4613 186.551 78.7184 186.23 78.8706C185.342 79.4892 185.245 79.8152 184.946 80.1771C183.935 81.6242 183.268 82.8516 182.444 84.2862C174.689 97.1925 155.263 95.0321 142.161 89.1934C140.731 88.5465 139.335 87.8332 137.993 87.0529Z" fill="black"/>
<defs>
<filter id="filter0_f_4919_912" x="39.0938" y="8.66797" width="83.6289" height="84.1191" filterUnits="userSpaceOnUse" color-interpolation-filters="sRGB">
<feFlood flood-opacity="0" result="BackgroundImageFix"/>
<feBlend mode="normal" in="SourceGraphic" in2="BackgroundImageFix" result="shape"/>
<feGaussianBlur stdDeviation="7.5" result="effect1_foregroundBlur_4919_912"/>
</filter>
<filter id="filter1_f_4919_912" x="273.562" y="98.2676" width="82.2188" height="84.4648" filterUnits="userSpaceOnUse" color-interpolation-filters="sRGB">
<feFlood flood-opacity="0" result="BackgroundImageFix"/>
<feBlend mode="normal" in="SourceGraphic" in2="BackgroundImageFix" result="shape"/>
<feGaussianBlur stdDeviation="7.5" result="effect1_foregroundBlur_4919_912"/>
</filter>
<filter id="filter2_f_4919_912" x="8.91016" y="182.477" width="83.6289" height="84.1191" filterUnits="userSpaceOnUse" color-interpolation-filters="sRGB">
<feFlood flood-opacity="0" result="BackgroundImageFix"/>
<feBlend mode="normal" in="SourceGraphic" in2="BackgroundImageFix" result="shape"/>
<feGaussianBlur stdDeviation="7.5" result="effect1_foregroundBlur_4919_912"/>
</filter>
<filter id="filter3_g_4919_912" x="92.7271" y="49.7271" width="175.546" height="175.546" filterUnits="userSpaceOnUse" color-interpolation-filters="sRGB">
<feFlood flood-opacity="0" result="BackgroundImageFix"/>
<feBlend mode="normal" in="SourceGraphic" in2="BackgroundImageFix" result="shape"/>
<feTurbulence type="fractalNoise" baseFrequency="0.05866347998380661 0.05866347998380661" numOctaves="3" seed="8488" />
<feDisplacementMap in="shape" scale="4.5457015037536621" xChannelSelector="R" yChannelSelector="G" result="displacedImage" width="100%" height="100%" />
<feMerge result="effect1_texture_4919_912">
<feMergeNode in="displacedImage"/>
</feMerge>
</filter>
</defs>
</svg>
