<svg width="361" height="276" viewBox="0 0 361 276" fill="none" xmlns="http://www.w3.org/2000/svg">
<g filter="url(#filter0_f_4919_768)">
<path d="M79.8609 26.5147C81.2212 22.2092 87.5347 22.9879 87.8081 27.4949C88.0037 30.7189 91.6953 32.4427 94.2928 30.523C97.924 27.8393 102.574 32.1802 100.146 35.9872C98.4093 38.7104 100.383 42.2749 103.612 42.2485C108.128 42.2117 109.338 48.4569 105.136 50.1097C102.13 51.2919 101.632 55.3355 104.26 57.2127C107.935 59.8368 105.243 65.6008 100.872 64.468C97.7454 63.6578 94.9652 66.636 95.9883 69.6996C97.4186 73.9824 91.8531 77.0634 88.9828 73.5779C86.9296 71.0846 82.9297 71.8598 81.9567 74.9397C80.5965 79.2452 74.2829 78.4666 74.0095 73.9596C73.8139 70.7356 70.1223 69.0117 67.5248 70.9315C63.8937 73.6152 59.2435 69.2742 61.6715 65.4673C63.4083 62.744 61.435 59.1796 58.2052 59.2059C53.6901 59.2427 52.4796 52.9975 56.6815 51.3448C59.6873 50.1625 60.186 46.1189 57.5576 44.2418C53.8831 41.6176 56.5747 35.8537 60.9455 36.9864C64.0722 37.7967 66.8524 34.8185 65.8293 31.7548C64.399 27.4721 69.9645 24.391 72.8348 27.8765C74.8881 30.3699 78.8879 29.5946 79.8609 26.5147Z" fill="#7BC8EF" fill-opacity="0.2"/>
</g>
<g filter="url(#filter1_f_4919_768)">
<path d="M310.676 116.598C311.499 112.158 317.86 112.158 318.683 116.598C319.272 119.774 323.147 121.033 325.49 118.809C328.765 115.701 333.912 119.441 331.968 123.516C330.578 126.431 332.972 129.728 336.175 129.306C340.651 128.717 342.617 134.767 338.649 136.922C335.811 138.463 335.811 142.537 338.649 144.078C342.617 146.233 340.651 152.283 336.175 151.694C332.972 151.272 330.578 154.569 331.968 157.484C333.912 161.559 328.765 165.299 325.49 162.191C323.147 159.967 319.272 161.226 318.683 164.402C317.86 168.842 311.499 168.842 310.676 164.402C310.087 161.226 306.212 159.967 303.869 162.191C300.594 165.299 295.448 161.559 297.391 157.484C298.782 154.569 296.387 151.272 293.185 151.694C288.708 152.283 286.742 146.233 290.71 144.078C293.549 142.537 293.549 138.463 290.71 136.922C286.742 134.767 288.708 128.717 293.185 129.306C296.387 129.728 298.782 126.431 297.391 123.516C295.448 119.441 300.594 115.701 303.869 118.809C306.212 121.033 310.087 119.774 310.676 116.598Z" fill="#7BC8EF" fill-opacity="0.2"/>
</g>
<g filter="url(#filter2_f_4919_768)">
<path d="M49.6773 200.323C51.0376 196.018 57.3511 196.796 57.6245 201.303C57.8201 204.527 61.5117 206.251 64.1092 204.332C67.7404 201.648 72.3905 205.989 69.9625 209.796C68.2257 212.519 70.199 216.083 73.4288 216.057C77.944 216.02 79.1544 222.266 74.9525 223.918C71.9467 225.101 71.448 229.144 74.0765 231.021C77.7509 233.645 75.0594 239.409 70.6885 238.277C67.5619 237.466 64.7816 240.445 65.8047 243.508C67.235 247.791 61.6695 250.872 58.7992 247.386C56.746 244.893 52.7462 245.668 51.7731 248.748C50.4129 253.054 44.0993 252.275 43.8259 247.768C43.6303 244.544 39.9388 242.82 37.3413 244.74C33.7101 247.424 29.06 243.083 31.4879 239.276C33.2247 236.553 31.2514 232.988 28.0216 233.014C23.5065 233.051 22.296 226.806 26.4979 225.153C29.5037 223.971 30.0024 219.927 27.374 218.05C23.6995 215.426 26.3911 209.662 30.762 210.795C33.8886 211.605 36.6688 208.627 35.6457 205.563C34.2154 201.281 39.7809 198.2 42.6513 201.685C44.7045 204.178 48.7043 203.403 49.6773 200.323Z" fill="#7BC8EF" fill-opacity="0.2"/>
</g>
<g filter="url(#filter3_g_4919_768)">
<path d="M121.435 128.546C146.672 77.828 159.29 52.4688 179.234 52.0088C179.742 51.9971 180.25 51.9971 180.759 52.0088C200.702 52.4688 213.321 77.828 238.557 128.546C259.385 170.404 269.799 191.333 260.672 206.773C260.435 207.174 260.19 207.569 259.937 207.96C250.165 223 226.776 223 179.996 223C133.217 223 109.827 223 100.056 207.96C99.802 207.569 99.5567 207.174 99.3199 206.773C90.1936 191.333 100.607 170.404 121.435 128.546Z" fill="#7BC8EF"/>
</g>
<path d="M195.39 185.334C184.357 187.988 172.758 186.773 165.5 185.188C164.614 184.994 164.074 186.166 164.853 186.631C177.715 194.32 189.512 190.78 196.022 186.582C196.754 186.11 196.236 185.131 195.39 185.334Z" fill="#44AFE5"/>
<ellipse cx="167.005" cy="139.259" rx="17" ry="10" transform="rotate(-15 167.005 139.259)" fill="white"/>
<ellipse cx="165.018" cy="139.759" rx="8" ry="5" transform="rotate(-15 165.018 139.759)" fill="#131313"/>
<ellipse cx="196.918" cy="139.64" rx="17" ry="10" transform="rotate(5.70514 196.918 139.64)" fill="white"/>
<ellipse cx="196.459" cy="139.771" rx="8" ry="5" transform="rotate(5.70514 196.459 139.771)" fill="#131313"/>
<path d="M180.496 148C184.086 148 186.996 154.422 186.996 159.669C186.996 164.916 184.086 167 180.496 167C176.906 167 173.996 164.916 173.996 159.669C173.996 154.422 176.906 148 180.496 148Z" fill="#131313"/>
<path d="M157.996 170C166.153 177.703 184.409 185.655 204.996 170" stroke="black" stroke-width="3.5" stroke-linecap="round"/>
<path d="M147.996 127L213.707 120.829" stroke="black" stroke-width="3.5" stroke-linecap="round"/>
<defs>
<filter id="filter0_f_4919_768" x="39.0938" y="8.66797" width="83.6289" height="84.1191" filterUnits="userSpaceOnUse" color-interpolation-filters="sRGB">
<feFlood flood-opacity="0" result="BackgroundImageFix"/>
<feBlend mode="normal" in="SourceGraphic" in2="BackgroundImageFix" result="shape"/>
<feGaussianBlur stdDeviation="7.5" result="effect1_foregroundBlur_4919_768"/>
</filter>
<filter id="filter1_f_4919_768" x="273.57" y="98.2676" width="82.2188" height="84.4648" filterUnits="userSpaceOnUse" color-interpolation-filters="sRGB">
<feFlood flood-opacity="0" result="BackgroundImageFix"/>
<feBlend mode="normal" in="SourceGraphic" in2="BackgroundImageFix" result="shape"/>
<feGaussianBlur stdDeviation="7.5" result="effect1_foregroundBlur_4919_768"/>
</filter>
<filter id="filter2_f_4919_768" x="8.91016" y="182.477" width="83.6289" height="84.1191" filterUnits="userSpaceOnUse" color-interpolation-filters="sRGB">
<feFlood flood-opacity="0" result="BackgroundImageFix"/>
<feBlend mode="normal" in="SourceGraphic" in2="BackgroundImageFix" result="shape"/>
<feGaussianBlur stdDeviation="7.5" result="effect1_foregroundBlur_4919_768"/>
</filter>
<filter id="filter3_g_4919_768" x="93.9258" y="49.9297" width="172.141" height="175.141" filterUnits="userSpaceOnUse" color-interpolation-filters="sRGB">
<feFlood flood-opacity="0" result="BackgroundImageFix"/>
<feBlend mode="normal" in="SourceGraphic" in2="BackgroundImageFix" result="shape"/>
<feTurbulence type="fractalNoise" baseFrequency="0.064403258264064789 0.064403258264064789" numOctaves="3" seed="8488" />
<feDisplacementMap in="shape" scale="4.1405768394470215" xChannelSelector="R" yChannelSelector="G" result="displacedImage" width="100%" height="100%" />
<feMerge result="effect1_texture_4919_768">
<feMergeNode in="displacedImage"/>
</feMerge>
</filter>
</defs>
</svg>
