<svg width="155" height="147" viewBox="0 0 155 147" fill="none" xmlns="http://www.w3.org/2000/svg">
<g filter="url(#filter0_g_4008_396)">
<path d="M58.2837 8.69827C66.4984 0.238598 79.9905 0.238598 88.2051 8.69827C89.8411 10.3831 91.7447 11.7796 93.837 12.8302C104.343 18.1053 108.512 31.063 103.083 41.5665C102.002 43.6583 101.275 45.918 100.932 48.2521C99.2104 59.9719 88.295 67.9802 76.7251 66.0121C74.4209 65.6201 72.068 65.6201 69.7637 66.0121C58.1938 67.9802 47.2784 59.9719 45.5568 48.2521C45.2139 45.918 44.4868 43.6583 43.4056 41.5665C37.9767 31.063 42.1459 18.1053 52.6518 12.8302C54.7442 11.7796 56.6477 10.3831 58.2837 8.69827Z" fill="#FFEB98"/>
<path d="M9.35428 106.025C2.78304 83.1618 -0.502585 71.7303 5.51603 65.9288C5.66941 65.7809 5.82617 65.6366 5.98619 65.496C12.2651 59.9793 23.3313 64.2498 45.4636 72.7908C63.7294 79.8397 72.8623 83.3642 74.4176 90.7338C74.4579 90.925 74.4943 91.1171 74.5265 91.3099C75.77 98.7389 68.5588 105.376 54.1364 118.65C39.714 131.924 32.5029 138.561 25.2344 136.677C25.0458 136.628 24.8582 136.575 24.6718 136.518C17.4892 134.328 14.7775 124.893 9.35428 106.025Z" fill="#FFEB98"/>
<path d="M84.9996 97.5337C89.6293 83.5126 91.9441 76.5021 97.5052 73.2635C98.0959 72.9195 98.7069 72.6116 99.3347 72.3415C105.244 69.7991 112.23 72.122 126.203 76.7678C140.176 81.4136 147.162 83.7365 150.389 89.3168C150.732 89.9096 151.039 90.5227 151.308 91.1526C153.842 97.0826 151.527 104.093 146.897 118.114C142.267 132.135 139.952 139.146 134.391 142.384C133.801 142.728 133.19 143.036 132.562 143.306C126.652 145.849 119.666 143.526 105.694 138.88C91.7211 134.234 84.7348 131.911 81.5074 126.331C81.1646 125.738 80.8577 125.125 80.5886 124.495C78.055 118.565 80.3699 111.555 84.9996 97.5337Z" fill="#FFEB98"/>
</g>
<defs>
<filter id="filter0_g_4008_396" x="-0.00158596" y="0.000367165" width="154.706" height="146.706" filterUnits="userSpaceOnUse" color-interpolation-filters="sRGB">
<feFlood flood-opacity="0" result="BackgroundImageFix"/>
<feBlend mode="normal" in="SourceGraphic" in2="BackgroundImageFix" result="shape"/>
<feTurbulence type="fractalNoise" baseFrequency="0.056661669164896011 0.056661669164896011" numOctaves="3" seed="8488" />
<feDisplacementMap in="shape" scale="4.7062969207763672" xChannelSelector="R" yChannelSelector="G" result="displacedImage" width="100%" height="100%" />
<feMerge result="effect1_texture_4008_396">
<feMergeNode in="displacedImage"/>
</feMerge>
</filter>
</defs>
</svg>
