<svg width="24" height="24" viewBox="0 0 24 24" fill="none" xmlns="http://www.w3.org/2000/svg">
<path d="M13.3001 3.14844L21.9342 18.1024C22.0658 18.3305 22.1351 18.5891 22.1351 18.8524C22.1351 19.1157 22.0658 19.3744 21.9342 19.6024C21.8025 19.8304 21.6132 20.0198 21.3851 20.1515C21.1571 20.2831 20.8985 20.3524 20.6352 20.3524H3.36715C3.10385 20.3524 2.84519 20.2831 2.61716 20.1515C2.38914 20.0198 2.19979 19.8304 2.06814 19.6024C1.93649 19.3744 1.86719 19.1157 1.86719 18.8524C1.86719 18.5891 1.9365 18.3305 2.06815 18.1024L10.7021 3.14844C11.2791 2.14844 12.7221 2.14844 13.3001 3.14844ZM12.0011 15.0004C11.7359 15.0004 11.4816 15.1058 11.294 15.2933C11.1065 15.4809 11.0011 15.7352 11.0011 16.0004C11.0011 16.2657 11.1065 16.52 11.294 16.7075C11.4816 16.8951 11.7359 17.0004 12.0011 17.0004C12.2664 17.0004 12.5207 16.8951 12.7083 16.7075C12.8958 16.52 13.0011 16.2657 13.0011 16.0004C13.0011 15.7352 12.8958 15.4809 12.7083 15.2933C12.5207 15.1058 12.2664 15.0004 12.0011 15.0004ZM12.0011 8.00044C11.7562 8.00047 11.5198 8.09039 11.3368 8.25315C11.1537 8.41591 11.0368 8.64019 11.0081 8.88344L11.0011 9.00044V13.0004C11.0014 13.2553 11.099 13.5005 11.274 13.6858C11.449 13.8711 11.6881 13.9827 11.9425 13.9976C12.197 14.0125 12.4475 13.9298 12.643 13.7662C12.8384 13.6026 12.964 13.3705 12.9941 13.1174L13.0011 13.0004V9.00044C13.0011 8.73522 12.8958 8.48087 12.7083 8.29333C12.5207 8.10579 12.2664 8.00044 12.0011 8.00044Z" fill="#EA674B"/>
</svg>
