<svg width="28" height="28" viewBox="0 0 28 28" fill="none" xmlns="http://www.w3.org/2000/svg">
<path d="M25.1423 16V13.7143C25.1423 12.7554 25.1423 11.9029 25.1274 11.1429H2.30001C2.28516 11.9029 2.28516 12.7554 2.28516 13.7143V16C2.28516 20.3097 2.28516 22.4651 3.62458 23.8034C4.96401 25.1417 7.1183 25.1429 11.428 25.1429H15.9994C20.3092 25.1429 22.4646 25.1429 23.8029 23.8034C25.1412 22.464 25.1423 20.3097 25.1423 16ZM8.85658 2.85714C8.85658 2.62981 8.76628 2.4118 8.60553 2.25105C8.44479 2.09031 8.22677 2 7.99944 2C7.77211 2 7.5541 2.09031 7.39335 2.25105C7.2326 2.4118 7.1423 2.62981 7.1423 2.85714V4.66286C5.49658 4.79429 4.41773 5.11657 3.62458 5.91086C2.8303 6.704 2.50801 7.784 2.37544 9.42857H25.052C24.9194 7.78286 24.5972 6.704 23.8029 5.91086C23.0097 5.11657 21.9297 4.79429 20.2852 4.66171V2.85714C20.2852 2.62981 20.1948 2.4118 20.0341 2.25105C19.8734 2.09031 19.6553 2 19.428 2C19.2007 2 18.9827 2.09031 18.8219 2.25105C18.6612 2.4118 18.5709 2.62981 18.5709 2.85714V4.58629C17.8109 4.57143 16.9583 4.57143 15.9994 4.57143H11.428C10.4692 4.57143 9.61658 4.57143 8.85658 4.58629V2.85714Z" fill="white" fill-opacity="0.8"/>
</svg>
