<svg width="16" height="16" viewBox="0 0 16 16" fill="none" xmlns="http://www.w3.org/2000/svg">
<path fill-rule="evenodd" clip-rule="evenodd" d="M12.9963 2.08953C13.144 2.00067 13.3204 1.97249 13.4885 2.0109C13.6565 2.04931 13.8032 2.15132 13.8976 2.29553L14.5576 3.3022C14.6437 3.43371 14.6805 3.59138 14.6616 3.74739C14.6427 3.9034 14.5692 4.04772 14.4543 4.15487L14.4523 4.15753L14.4429 4.1662L14.4049 4.20153L14.2549 4.34487C13.425 5.14998 12.6202 5.9806 11.8416 6.83553C10.3769 8.4462 8.63762 10.5542 7.46695 12.5995C7.14028 13.1702 6.34228 13.2929 5.86895 12.8002L1.54562 8.3082C1.48366 8.2438 1.43528 8.16761 1.40336 8.08414C1.37144 8.00067 1.35662 7.91164 1.3598 7.82233C1.36297 7.73302 1.38406 7.64527 1.42182 7.56427C1.45959 7.48328 1.51325 7.41071 1.57962 7.35087L2.88628 6.1722C3.00111 6.06868 3.14835 6.00828 3.3028 6.00134C3.45725 5.99441 3.60931 6.04138 3.73295 6.1342L5.93895 7.7882C9.38495 4.3902 11.3389 3.0862 12.9963 2.08953Z" fill="#8A600A"/>
</svg>
