<svg width="24" height="24" viewBox="0 0 24 24" fill="none" xmlns="http://www.w3.org/2000/svg">
<path d="M12.5912 23.2584L12.5802 23.2604L12.5092 23.2954L12.4892 23.2994L12.4752 23.2954L12.4042 23.2604C12.3936 23.2571 12.3856 23.2588 12.3802 23.2654L12.3762 23.2754L12.3592 23.7034L12.3642 23.7234L12.3742 23.7364L12.4782 23.8104L12.4932 23.8144L12.5052 23.8104L12.6092 23.7364L12.6212 23.7204L12.6252 23.7034L12.6082 23.2764C12.6056 23.2658 12.5999 23.2598 12.5912 23.2584ZM12.8562 23.1454L12.8432 23.1474L12.6582 23.2404L12.6482 23.2504L12.6452 23.2614L12.6632 23.6914L12.6682 23.7034L12.6762 23.7104L12.8772 23.8034C12.8899 23.8068 12.8996 23.8041 12.9062 23.7954L12.9102 23.7814L12.8762 23.1674C12.8729 23.1554 12.8662 23.1481 12.8562 23.1454ZM12.1412 23.1474C12.1368 23.1448 12.1315 23.1439 12.1265 23.145C12.1215 23.1461 12.1171 23.1491 12.1142 23.1534L12.1082 23.1674L12.0742 23.7814C12.0749 23.7934 12.0806 23.8014 12.0912 23.8054L12.1062 23.8034L12.3072 23.7104L12.3172 23.7024L12.3212 23.6914L12.3382 23.2614L12.3352 23.2494L12.3252 23.2394L12.1412 23.1474Z" fill="#181920"/>
<path d="M12 2C17.523 2 22 6.477 22 12C22 17.523 17.523 22 12 22C6.477 22 2 17.523 2 12C2 6.477 6.477 2 12 2ZM15.535 8.381L10.585 13.331L8.465 11.21C8.37216 11.1171 8.26192 11.0434 8.14059 10.9931C8.01926 10.9428 7.8892 10.9168 7.75785 10.9168C7.49258 10.9167 7.23814 11.022 7.0505 11.2095C6.86286 11.397 6.75739 11.6514 6.7573 11.9166C6.7572 12.1819 6.86249 12.4364 7.05 12.624L9.808 15.382C9.91015 15.4842 10.0314 15.5653 10.1649 15.6206C10.2984 15.6759 10.4415 15.7044 10.586 15.7044C10.7305 15.7044 10.8736 15.6759 11.0071 15.6206C11.1406 15.5653 11.2618 15.4842 11.364 15.382L16.95 9.796C17.1376 9.60836 17.2431 9.35386 17.2431 9.0885C17.2431 8.82314 17.1376 8.56864 16.95 8.381C16.7624 8.19336 16.5079 8.08794 16.2425 8.08794C15.9771 8.08794 15.7226 8.19336 15.535 8.381Z" fill="#A8B4C6"/>
</svg>
