<svg width="11" height="11" viewBox="0 0 11 11" fill="none" xmlns="http://www.w3.org/2000/svg">
<path d="M8.70585 0.258236C8.87994 0.0973987 9.10952 0.0101674 9.34649 0.0148139C9.58347 0.0194604 9.80945 0.115624 9.97711 0.283162C10.1448 0.4507 10.2411 0.676614 10.2459 0.913584C10.2507 1.15055 10.1636 1.38019 10.0029 1.5544L6.4371 5.11932L10.0029 8.68515C10.1699 8.85804 10.2623 9.08959 10.2602 9.32994C10.2581 9.57028 10.1617 9.8002 9.99177 9.97015C9.82181 10.1401 9.5919 10.2365 9.35155 10.2386C9.1112 10.2407 8.87965 10.1483 8.70677 9.98132L5.14093 6.41548L1.57601 9.98132C1.49145 10.0689 1.39031 10.1387 1.27847 10.1867C1.16663 10.2348 1.04635 10.2601 0.924632 10.2611C0.802918 10.2622 0.682211 10.239 0.569556 10.1929C0.456901 10.1468 0.354554 10.0787 0.268486 9.99268C0.182417 9.90661 0.114352 9.80426 0.0682612 9.69161C0.0221704 9.57895 -0.00102305 9.45825 3.461e-05 9.33653C0.00109228 9.21482 0.0263797 9.09454 0.0744213 8.9827C0.122463 8.87086 0.192297 8.76971 0.279848 8.68515L3.84476 5.11932L0.279848 1.55349C0.112869 1.3806 0.0204747 1.14905 0.0225632 0.908701C0.0246518 0.668354 0.121056 0.438443 0.291014 0.268485C0.460971 0.0985279 0.690883 0.0021232 0.93123 3.46524e-05C1.17158 -0.0020539 1.40313 0.0903409 1.57601 0.257319L5.14093 3.82315L8.70585 0.258236Z" fill="#A8B4C6"/>
</svg>
