<svg width="28" height="28" viewBox="0 0 28 28" fill="none" xmlns="http://www.w3.org/2000/svg">
<g clip-path="url(#clip0_4028_1072)">
<g filter="url(#filter0_g_4028_1072)">
<path d="M10.4617 0.296694C10.8883 -0.102525 11.55 -0.0970563 11.9766 0.302162C13.4859 1.71857 14.9023 3.24435 16.2258 4.89591C16.8273 4.10841 17.5109 3.24982 18.2492 2.54982C18.6813 2.14513 19.3484 2.14513 19.7805 2.55529C21.6727 4.35997 23.275 6.74435 24.4016 9.00841C25.5117 11.2397 26.25 13.5201 26.25 15.1279C26.25 22.1061 20.7922 28.0014 14 28.0014C7.13125 28.0014 1.75 22.1006 1.75 15.1225C1.75 13.0225 2.72344 10.4576 4.23281 7.92013C5.75859 5.34435 7.91328 2.65919 10.4617 0.296694ZM14.093 22.7514C15.4766 22.7514 16.7016 22.3686 17.8555 21.6029C20.1578 19.9951 20.7758 16.7795 19.3922 14.2529C19.1461 13.7608 18.5172 13.7279 18.1617 14.1436L16.7836 15.7459C16.4227 16.1615 15.7719 16.1506 15.4328 15.7186C14.5305 14.5701 12.9172 12.5194 11.9984 11.3545C11.6539 10.917 10.9977 10.9115 10.6477 11.349C8.79922 13.6733 7.86953 15.1389 7.86953 16.785C7.875 20.5311 10.6422 22.7514 14.093 22.7514Z" fill="#EE816A"/>
</g>
</g>
<defs>
<filter id="filter0_g_4028_1072" x="0.75" y="-1" width="26.5" height="30.002" filterUnits="userSpaceOnUse" color-interpolation-filters="sRGB">
<feFlood flood-opacity="0" result="BackgroundImageFix"/>
<feBlend mode="normal" in="SourceGraphic" in2="BackgroundImageFix" result="shape"/>
<feTurbulence type="fractalNoise" baseFrequency="0.05000000074505806 0.05000000074505806" numOctaves="3" seed="8488" />
<feDisplacementMap in="shape" scale="2" xChannelSelector="R" yChannelSelector="G" result="displacedImage" width="100%" height="100%" />
<feMerge result="effect1_texture_4028_1072">
<feMergeNode in="displacedImage"/>
</feMerge>
</filter>
<clipPath id="clip0_4028_1072">
<rect width="24.5" height="28" fill="white" transform="translate(1.75)"/>
</clipPath>
</defs>
</svg>
