<svg width="32" height="32" viewBox="0 0 32 32" fill="none" xmlns="http://www.w3.org/2000/svg">
<path d="M12.0013 13.3327C14.9468 13.3327 17.3346 10.9449 17.3346 7.99935C17.3346 5.05383 14.9468 2.66602 12.0013 2.66602C9.05578 2.66602 6.66797 5.05383 6.66797 7.99935C6.66797 10.9449 9.05578 13.3327 12.0013 13.3327Z" fill="white" fill-opacity="0.8"/>
<path d="M12.0013 28.0006C17.156 28.0006 21.3346 25.6128 21.3346 22.6673C21.3346 19.7218 17.156 17.334 12.0013 17.334C6.84664 17.334 2.66797 19.7218 2.66797 22.6673C2.66797 25.6128 6.84664 28.0006 12.0013 28.0006Z" fill="white" fill-opacity="0.8"/>
<path d="M28.0009 22.6675C28.0009 24.8768 25.2862 26.6675 21.9729 26.6675C22.9489 25.6008 23.6209 24.2608 23.6209 22.6702C23.6209 21.0768 22.9476 19.7368 21.9689 18.6688C25.2836 18.6675 28.0009 20.4595 28.0009 22.6675ZM24.0009 8.00084C24.0013 8.64446 23.8464 9.27868 23.5494 9.84965C23.2523 10.4206 22.8219 10.9115 22.2946 11.2805C21.7673 11.6496 21.1587 11.886 20.5206 11.9696C19.8824 12.0532 19.2335 11.9816 18.6289 11.7608C19.2796 10.6146 19.621 9.31887 19.6196 8.00084C19.6196 6.63417 19.2596 5.35151 18.6302 4.24217C19.2347 4.02168 19.8835 3.95028 20.5215 4.03402C21.1595 4.11777 21.7679 4.35419 22.295 4.72323C22.8221 5.09226 23.2524 5.58302 23.5494 6.15384C23.8464 6.72467 24.0013 7.35738 24.0009 8.00084Z" fill="white" fill-opacity="0.8"/>
</svg>
