<svg width="28" height="28" viewBox="0 0 28 28" fill="none" xmlns="http://www.w3.org/2000/svg">
<path fill-rule="evenodd" clip-rule="evenodd" d="M2.87944 8.94001C2.28516 10.0223 2.28516 11.3309 2.28516 13.9457V15.6852C2.28516 20.1423 2.28516 22.372 3.62458 23.7572C4.96401 25.1423 7.1183 25.1423 11.428 25.1423H15.9994C20.3092 25.1423 22.4646 25.1423 23.8029 23.7572C25.1412 22.372 25.1423 20.1434 25.1423 15.6852V13.9469C25.1423 11.3309 25.1423 10.0234 24.548 8.94001C23.956 7.85544 22.8714 7.18344 20.7034 5.83716L18.4177 4.41887C16.1263 2.99601 14.98 2.28516 13.7137 2.28516C12.4474 2.28516 11.3023 2.99601 9.00973 4.41887L6.72401 5.83716C4.55601 7.18344 3.47258 7.85544 2.87944 8.94001ZM12.8566 20.5709C12.8566 20.7982 12.9469 21.0162 13.1076 21.177C13.2684 21.3377 13.4864 21.428 13.7137 21.428C13.9411 21.428 14.1591 21.3377 14.3198 21.177C14.4806 21.0162 14.5709 20.7982 14.5709 20.5709V17.1423C14.5709 16.915 14.4806 16.697 14.3198 16.5362C14.1591 16.3755 13.9411 16.2852 13.7137 16.2852C13.4864 16.2852 13.2684 16.3755 13.1076 16.5362C12.9469 16.697 12.8566 16.915 12.8566 17.1423V20.5709Z" fill="white" fill-opacity="0.8"/>
</svg>
