<svg width="50" height="50" viewBox="0 0 50 50" fill="none" xmlns="http://www.w3.org/2000/svg">
<path d="M10.2843 43.1815H39.071C41.3329 43.1815 43.1834 41.3309 43.1834 39.0691V10.2823C43.1834 8.0205 41.3329 6.16992 39.071 6.16992H10.2843C8.02245 6.16992 6.17188 8.0205 6.17188 10.2823V39.0691C6.17188 41.3309 8.02245 43.1815 10.2843 43.1815ZM17.481 14.3947C19.1876 14.3947 20.5653 15.7724 20.5653 17.479C20.5653 19.1857 19.1876 20.5633 17.481 20.5633C15.7743 20.5633 14.3967 19.1857 14.3967 17.479C14.3967 15.7724 15.7743 14.3947 17.481 14.3947ZM10.2843 35.7997L16.4529 29.6311L19.1054 32.2836C19.9073 33.0856 21.2027 33.0856 22.0046 32.2836L32.8819 21.4063L39.0505 27.5749V39.0691H10.2637V35.7997H10.2843Z" fill="white" fill-opacity="0.1"/>
</svg>
