<svg width="28" height="28" viewBox="0 0 28 28" fill="none" xmlns="http://www.w3.org/2000/svg">
<path d="M12.989 7.49532C12.9992 7.23696 13.109 6.99257 13.2954 6.81336C13.4818 6.63415 13.7303 6.534 13.9889 6.53391C14.2474 6.53382 14.496 6.63379 14.6825 6.81287C14.869 6.99195 14.979 7.23626 14.9894 7.49461L14.9887 12.9952L20.49 12.9952C20.7522 12.9998 21.0021 13.1071 21.1859 13.2941C21.3696 13.4811 21.4726 13.7328 21.4726 13.995C21.4726 14.2573 21.3696 14.509 21.1859 14.696C21.0021 14.883 20.7522 14.9903 20.49 14.9949L14.9887 14.9949L14.9894 20.4955C14.9917 20.6282 14.9676 20.7601 14.9184 20.8835C14.8692 21.0068 14.7959 21.1191 14.7028 21.2138C14.6097 21.3085 14.4987 21.3837 14.3763 21.4351C14.2538 21.4864 14.1224 21.5129 13.9896 21.5129C13.8568 21.5129 13.7253 21.4864 13.6029 21.4351C13.4804 21.3837 13.3694 21.3085 13.2763 21.2138C13.1833 21.1191 13.11 21.0068 13.0608 20.8835C13.0116 20.7601 12.9874 20.6282 12.9897 20.4955L12.989 14.9949L7.48843 14.9942C7.22627 14.9896 6.97638 14.8823 6.79259 14.6953C6.6088 14.5083 6.50581 14.2565 6.50581 13.9943C6.50581 13.7321 6.6088 13.4804 6.79259 13.2934C6.97638 13.1064 7.22627 12.999 7.48843 12.9945L12.989 12.9952L12.989 7.49532Z" fill="white"/>
</svg>
