<svg width="32" height="32" viewBox="0 0 32 32" fill="none" xmlns="http://www.w3.org/2000/svg">
<path fill-rule="evenodd" clip-rule="evenodd" d="M15.0544 4.41002C14.529 5.09535 13.937 6.15402 13.0757 7.69802L12.6397 8.48068L12.561 8.62202C12.161 9.34202 11.821 9.95268 11.2757 10.366C10.725 10.7847 10.053 10.9353 9.27169 11.1113L9.11969 11.146L8.27169 11.338C6.59836 11.7167 5.45836 11.9767 4.67969 12.2847C3.91836 12.5833 3.75836 12.83 3.69702 13.026C3.63169 13.234 3.63036 13.5527 4.08369 14.2753C4.54636 15.0087 5.32636 15.9233 6.46502 17.2567L7.04369 17.9327L7.14369 18.0487C7.68102 18.6753 8.12902 19.198 8.33436 19.8594C8.53836 20.5167 8.47036 21.206 8.38769 22.0434L8.37436 22.1993L8.28636 23.102C8.11302 24.878 7.99836 26.102 8.03702 26.982C8.07702 27.862 8.26236 28.1047 8.41036 28.2167C8.54102 28.3167 8.78369 28.426 9.57436 28.1993C10.3784 27.97 11.4477 27.4807 13.0144 26.7593L13.809 26.394L13.9544 26.3274C14.681 25.99 15.3104 25.6993 15.9984 25.6993C16.6864 25.6993 17.3157 25.99 18.0424 26.326C18.0895 26.3491 18.1384 26.3713 18.189 26.3927L18.9824 26.7593C20.549 27.4807 21.6184 27.97 22.4224 28.1993C23.213 28.426 23.4557 28.3167 23.5864 28.2167C23.7344 28.1047 23.9197 27.8607 23.9597 26.982C23.9997 26.102 23.8824 24.878 23.7104 23.102L23.6224 22.1993L23.609 22.0434C23.5264 21.206 23.4584 20.5167 23.6624 19.8594C23.8677 19.198 24.3157 18.6753 24.853 18.0487L24.953 17.9327L25.5317 17.2567C26.6704 15.9233 27.4504 15.0087 27.9117 14.2753C28.3664 13.5527 28.365 13.2353 28.2997 13.026C28.2384 12.83 28.0784 12.5833 27.317 12.2847C26.537 11.9767 25.3984 11.7167 23.725 11.338L22.877 11.146L22.725 11.1113C21.9437 10.9353 21.2717 10.7847 20.721 10.366C20.1744 9.95268 19.837 9.34335 19.4357 8.62202L19.3584 8.48068L18.921 7.69802C18.0597 6.15402 17.4677 5.09535 16.9424 4.41002C16.417 3.72468 16.1504 3.66602 15.9984 3.66602C15.8464 3.66602 15.5784 3.72468 15.0544 4.41002ZM13.4677 3.19402C14.101 2.36468 14.8864 1.66602 15.9984 1.66602C17.1104 1.66602 17.8944 2.36468 18.5304 3.19402C19.1544 4.01002 19.817 5.19802 20.6264 6.65002L21.105 7.50735C21.6277 8.44602 21.7624 8.64602 21.9304 8.77402C22.0904 8.89535 22.2997 8.96468 23.317 9.19535L24.2504 9.40602C25.8184 9.76068 27.1104 10.0527 28.0504 10.4233C29.0264 10.8087 29.881 11.3753 30.2104 12.4327C30.5357 13.4793 30.1704 14.442 29.605 15.3393C29.0557 16.2127 28.1784 17.2393 27.1064 18.4927L26.473 19.2327C25.7837 20.038 25.6397 20.2353 25.5717 20.4527C25.5037 20.6754 25.509 20.9327 25.6144 22.006L25.709 22.99C25.8717 24.6647 26.0037 26.03 25.957 27.07C25.9104 28.13 25.6704 29.146 24.797 29.81C23.9064 30.4847 22.8704 30.41 21.8704 30.122C20.901 29.8447 19.693 29.2887 18.2264 28.6127L17.3517 28.21C16.3944 27.77 16.1904 27.6993 15.9984 27.6993C15.8064 27.6993 15.6024 27.77 14.645 28.21L13.7717 28.6127C12.3037 29.2887 11.0957 29.8447 10.1264 30.122C9.12636 30.4087 8.09036 30.4847 7.20102 29.81C6.32636 29.146 6.08636 28.13 6.03969 27.0714C5.99302 26.0314 6.12502 24.6647 6.28769 22.9913L6.38369 22.006C6.48769 20.9313 6.49302 20.6754 6.42369 20.4527C6.35702 20.2353 6.21302 20.0394 5.52369 19.2327L4.89036 18.4927C3.81969 17.2393 2.94236 16.2127 2.39302 15.3407C1.82636 14.442 1.46102 13.4793 1.78636 12.4327C2.11569 11.3753 2.97036 10.8087 3.94636 10.4233C4.88636 10.0527 6.17836 9.76068 7.74636 9.40602L7.83036 9.38735L8.67836 9.19535C9.69702 8.96468 9.90502 8.89535 10.0664 8.77268C10.2344 8.64602 10.369 8.44602 10.893 7.50735L11.3704 6.65002C12.1797 5.19668 12.8424 4.01002 13.4664 3.19402" fill="#667083"/>
</svg>
