<svg width="28" height="28" viewBox="0 0 28 28" fill="none" xmlns="http://www.w3.org/2000/svg">
<g clip-path="url(#clip0_6378_1267)">
<path fill-rule="evenodd" clip-rule="evenodd" d="M4.60354 1.77734C3.91304 1.77734 3.25082 2.05164 2.76256 2.5399C2.2743 3.02816 2 3.69038 2 4.38089V22.6057C2 23.2962 2.2743 23.9584 2.76256 24.4467C3.25082 24.9349 3.91304 25.2092 4.60354 25.2092H9.81063C10.5011 25.2092 11.1633 24.9349 11.6516 24.4467C12.1399 23.9584 12.4142 23.2962 12.4142 22.6057V4.38089C12.4142 3.69038 12.1399 3.02816 11.6516 2.5399C11.1633 2.05164 10.5011 1.77734 9.81063 1.77734H4.60354ZM17.6213 6.98443C16.9307 6.98443 16.2685 7.25873 15.7803 7.74699C15.292 8.23525 15.0177 8.89747 15.0177 9.58797V22.6057C15.0177 23.2962 15.292 23.9584 15.7803 24.4467C16.2685 24.9349 16.9307 25.2092 17.6213 25.2092H22.8283C23.5188 25.2092 24.1811 24.9349 24.6693 24.4467C25.1576 23.9584 25.4319 23.2962 25.4319 22.6057V9.58797C25.4319 8.89747 25.1576 8.23525 24.6693 7.74699C24.1811 7.25873 23.5188 6.98443 22.8283 6.98443H17.6213Z" fill="#DDDDDD"/>
</g>
<defs>
<clipPath id="clip0_6378_1267">
<rect width="27.43" height="27.43" fill="white"/>
</clipPath>
</defs>
</svg>
