<svg width="73" height="28" viewBox="0 0 73 28" fill="none" xmlns="http://www.w3.org/2000/svg">
<path d="M28 24.543V7.83481H30.8931L31.0377 9.54941C31.0739 9.87773 31.2909 9.95069 31.4717 9.69533C32.3758 8.45499 33.8223 7.54297 35.5943 7.54297C37.4025 7.54297 38.8852 8.09018 39.934 9.54941C40.1148 9.80477 40.2594 10.0601 40.5849 9.69533C41.706 8.38202 43.1525 7.54297 45.3223 7.54297C48.4324 7.54297 51 9.80477 51 14.985V24.543H47.9623V14.6567C47.9623 11.264 46.5157 10.0966 45.033 10.0966C42.9355 10.0966 41.0189 12.3584 41.0189 15.7511V24.543H37.9811V14.6567C37.9811 11.264 36.5346 10.0966 35.0519 10.0966C32.9544 10.0966 31.0377 12.3584 31.0377 15.7511V24.543H28Z" fill="#FFEB98"/>
<rect y="4.54297" width="17" height="3" transform="rotate(-8.97154 0 4.54297)" fill="#FFEB98"/>
<rect x="10" y="4.54297" width="20" height="3" transform="rotate(90 10 4.54297)" fill="#FFEB98"/>
<rect x="23" y="7.54297" width="17" height="3" transform="rotate(90 23 7.54297)" fill="#FFEB98"/>
<path d="M58.3808 8.45681C63.0747 6.49412 67.1866 8.77888 69.0406 13.2127C70.8944 17.6465 69.6327 22.1783 64.9388 24.1409C60.2126 26.1171 56.133 23.8188 54.279 19.385C52.4251 14.9512 53.6545 10.4331 58.3808 8.45681ZM59.1516 8.80666C56.8587 9.76538 56.3818 13.8472 58.086 17.9234C59.7905 21.9997 63.031 24.5269 65.3239 23.5682C67.6168 22.6094 68.0938 18.5277 66.3894 14.4515C64.6849 10.3754 61.4444 7.84797 59.1516 8.80666Z" fill="#FFEB98"/>
<path d="M20.8452 0.77143C22.0189 0.28068 23.0265 0.801445 23.4628 1.84471C23.8991 2.88804 23.562 3.97104 22.3883 4.46181C22.2909 4.50249 22.1943 4.53419 22.0996 4.56133C22.0448 4.59632 21.9882 4.6291 21.927 4.6547C21.1627 4.97428 20.1976 4.40723 19.7715 3.38816C19.3454 2.36909 19.6196 1.2839 20.3839 0.964315C20.4454 0.938614 20.5085 0.92017 20.5721 0.905711C20.6577 0.857617 20.7482 0.811987 20.8452 0.77143ZM21.7829 1.22932C22.0921 1.46545 22.3627 1.80841 22.5393 2.23085C22.7154 2.65202 22.7699 3.08424 22.7216 3.46928C22.9587 3.12063 22.9989 2.64638 22.7826 2.12914C22.5638 1.60601 22.1978 1.30308 21.7829 1.22932Z" fill="#FFEB98"/>
</svg>
