<svg xmlns="http://www.w3.org/2000/svg" width="18" height="18" viewBox="0 0 18 18" fill="none">
<path opacity="0.987" fill-rule="evenodd" clip-rule="evenodd" d="M8.11003 1.19334C8.92566 1.10222 9.40828 1.10222 10.2847 1.19334C11.836 1.42295 13.274 2.14001 14.3909 3.24084C13.6362 3.95425 12.8913 4.67807 12.1567 5.41209C10.7497 4.21959 9.17916 3.94434 7.44516 4.58634C6.17316 5.17134 5.28741 6.11934 4.78791 7.43034C3.97165 6.82265 3.16603 6.20081 2.37141 5.56509C2.31618 5.53603 2.25311 5.52538 2.19141 5.53472C3.45366 3.10097 5.42616 1.65347 8.10891 1.19222" fill="#F44336"/>
<path opacity="0.997" fill-rule="evenodd" clip-rule="evenodd" d="M2.18953 5.53472C2.25328 5.52497 2.31366 5.53509 2.37066 5.56509C3.16528 6.2008 3.9709 6.82265 4.78716 7.43034C4.65871 7.94116 4.57774 8.46275 4.54528 8.98846C4.57303 9.49696 4.65366 9.99609 4.78716 10.4858L2.25028 12.5052C1.14553 10.1967 1.12528 7.87322 2.18953 5.53472Z" fill="#FFC107"/>
<path opacity="0.999" fill-rule="evenodd" clip-rule="evenodd" d="M14.2701 14.9516C13.4802 14.2549 12.6532 13.6015 11.7928 12.9941C12.6553 12.3851 13.1788 11.5496 13.3633 10.4876H9.13672V7.55245C11.5742 7.5322 14.0106 7.55282 16.4458 7.61432C16.9078 10.1231 16.3742 12.3851 14.845 14.4003C14.6631 14.5936 14.4705 14.7776 14.2701 14.9516Z" fill="#448AFF"/>
<path opacity="0.993" fill-rule="evenodd" clip-rule="evenodd" d="M4.78688 10.4863C5.70938 12.7791 7.40063 13.8493 9.86063 13.6971C10.5512 13.6171 11.2133 13.3759 11.7934 12.9928C12.6544 13.6018 13.4801 14.2543 14.2706 14.9503C13.0181 16.0758 11.4211 16.7437 9.74025 16.8448C9.35836 16.8754 8.97464 16.8754 8.59275 16.8448C5.72925 16.5073 3.615 15.0606 2.25 12.5046L4.78688 10.4863Z" fill="#43A047"/>
</svg>